  0
SECTION
  2
HEADER
  9
$ACADVER
  1
AC1024
  9
$ACADMAINTVER
 70
6
  9
$DWGCODEPAGE
  3
ANSI_1252
  9
$LASTSAVEDBY
  1
ezdxf
  9
$INSBASE
 10
0.0
 20
0.0
 30
0.0
  9
$EXTMIN
 10
1e+20
 20
1e+20
 30
1e+20
  9
$EXTMAX
 10
-1e+20
 20
-1e+20
 30
-1e+20
  9
$LIMMIN
 10
0.0
 20
0.0
  9
$LIMMAX
 10
420.0
 20
297.0
  9
$ORTHOMODE
 70
0
  9
$REGENMODE
 70
1
  9
$FILLMODE
 70
1
  9
$QTEXTMODE
 70
0
  9
$MIRRTEXT
 70
1
  9
$LTSCALE
 40
1.0
  9
$ATTMODE
 70
1
  9
$TEXTSIZE
 40
2.5
  9
$TRACEWID
 40
1.0
  9
$TEXTSTYLE
  7
TNR
  9
$CLAYER
  8
0
  9
$CELTYPE
  6
ByLayer
  9
$CECOLOR
 62
256
  9
$CELTSCALE
 40
1.0
  9
$DISPSILH
 70
0
  9
$DIMSCALE
 40
1.0
  9
$DIMASZ
 40
2.5
  9
$DIMEXO
 40
0.625
  9
$DIMDLI
 40
3.75
  9
$DIMRND
 40
0.0
  9
$DIMDLE
 40
0.0
  9
$DIMEXE
 40
1.25
  9
$DIMTP
 40
0.0
  9
$DIMTM
 40
0.0
  9
$DIMTXT
 40
2.5
  9
$DIMCEN
 40
2.5
  9
$DIMTSZ
 40
0.0
  9
$DIMTOL
 70
0
  9
$DIMLIM
 70
0
  9
$DIMTIH
 70
0
  9
$DIMTOH
 70
0
  9
$DIMSE1
 70
0
  9
$DIMSE2
 70
0
  9
$DIMTAD
 70
1
  9
$DIMZIN
 70
8
  9
$DIMBLK
  1

  9
$DIMASO
 70
1
  9
$DIMSHO
 70
1
  9
$DIMPOST
  1

  9
$DIMAPOST
  1

  9
$DIMALT
 70
0
  9
$DIMALTD
 70
3
  9
$DIMALTF
 40
0.03937007874
  9
$DIMLFAC
 40
1.0
  9
$DIMTOFL
 70
1
  9
$DIMTVP
 40
0.0
  9
$DIMTIX
 70
0
  9
$DIMSOXD
 70
0
  9
$DIMSAH
 70
0
  9
$DIMBLK1
  1

  9
$DIMBLK2
  1

  9
$DIMSTYLE
  2
ISO-25
  9
$DIMCLRD
 70
0
  9
$DIMCLRE
 70
0
  9
$DIMCLRT
 70
0
  9
$DIMTFAC
 40
1.0
  9
$DIMGAP
 40
0.625
  9
$DIMJUST
 70
0
  9
$DIMSD1
 70
0
  9
$DIMSD2
 70
0
  9
$DIMTOLJ
 70
0
  9
$DIMTZIN
 70
8
  9
$DIMALTZ
 70
0
  9
$DIMALTTZ
 70
0
  9
$DIMUPT
 70
0
  9
$DIMDEC
 70
2
  9
$DIMTDEC
 70
2
  9
$DIMALTU
 70
2
  9
$DIMALTTD
 70
3
  9
$DIMTXSTY
  7
Standard
  9
$DIMAUNIT
 70
0
  9
$DIMADEC
 70
0
  9
$DIMALTRND
 40
0.0
  9
$DIMAZIN
 70
0
  9
$DIMDSEP
 70
44
  9
$DIMATFIT
 70
3
  9
$DIMFRAC
 70
0
  9
$DIMLDRBLK
  1

  9
$DIMLUNIT
 70
2
  9
$DIMLWD
 70
-2
  9
$DIMLWE
 70
-2
  9
$DIMTMOVE
 70
0
  9
$DIMFXL
 40
1.0
  9
$DIMFXLON
 70
0
  9
$DIMJOGANG
 40
0.785398163397
  9
$DIMTFILL
 70
0
  9
$DIMTFILLCLR
 70
0
  9
$DIMARCSYM
 70
0
  9
$DIMLTYPE
  6

  9
$DIMLTEX1
  6

  9
$DIMLTEX2
  6

  9
$DIMTXTDIRECTION
 70
0
  9
$LUNITS
 70
2
  9
$LUPREC
 70
4
  9
$SKETCHINC
 40
1.0
  9
$FILLETRAD
 40
10.0
  9
$AUNITS
 70
0
  9
$AUPREC
 70
2
  9
$MENU
  1
.
  9
$ELEVATION
 40
0.0
  9
$PELEVATION
 40
0.0
  9
$THICKNESS
 40
0.0
  9
$LIMCHECK
 70
0
  9
$CHAMFERA
 40
0.0
  9
$CHAMFERB
 40
0.0
  9
$CHAMFERC
 40
0.0
  9
$CHAMFERD
 40
0.0
  9
$SKPOLY
 70
0
  9
$TDCREATE
 40
2461087.6434375
  9
$TDUCREATE
 40
2458532.153996898
  9
$TDUPDATE
 40
2461087.6434375
  9
$TDUUPDATE
 40
2458532.1544311
  9
$TDINDWG
 40
0.0
  9
$TDUSRTIMER
 40
0.0
  9
$USRTIMER
 70
1
  9
$ANGBASE
 50
0.0
  9
$ANGDIR
 70
0
  9
$PDMODE
 70
0
  9
$PDSIZE
 40
0.0
  9
$PLINEWID
 40
0.0
  9
$SPLFRAME
 70
0
  9
$SPLINETYPE
 70
6
  9
$SPLINESEGS
 70
8
  9
$HANDSEED
  5
97
  9
$SURFTAB1
 70
6
  9
$SURFTAB2
 70
6
  9
$SURFTYPE
 70
6
  9
$SURFU
 70
6
  9
$SURFV
 70
6
  9
$UCSBASE
  2

  9
$UCSNAME
  2

  9
$UCSORG
 10
0.0
 20
0.0
 30
0.0
  9
$UCSXDIR
 10
1.0
 20
0.0
 30
0.0
  9
$UCSYDIR
 10
0.0
 20
1.0
 30
0.0
  9
$UCSORTHOREF
  2

  9
$UCSORTHOVIEW
 70
0
  9
$UCSORGTOP
 10
0.0
 20
0.0
 30
0.0
  9
$UCSORGBOTTOM
 10
0.0
 20
0.0
 30
0.0
  9
$UCSORGLEFT
 10
0.0
 20
0.0
 30
0.0
  9
$UCSORGRIGHT
 10
0.0
 20
0.0
 30
0.0
  9
$UCSORGFRONT
 10
0.0
 20
0.0
 30
0.0
  9
$UCSORGBACK
 10
0.0
 20
0.0
 30
0.0
  9
$PUCSBASE
  2

  9
$PUCSNAME
  2

  9
$PUCSORG
 10
0.0
 20
0.0
 30
0.0
  9
$PUCSXDIR
 10
1.0
 20
0.0
 30
0.0
  9
$PUCSYDIR
 10
0.0
 20
1.0
 30
0.0
  9
$PUCSORTHOREF
  2

  9
$PUCSORTHOVIEW
 70
0
  9
$PUCSORGTOP
 10
0.0
 20
0.0
 30
0.0
  9
$PUCSORGBOTTOM
 10
0.0
 20
0.0
 30
0.0
  9
$PUCSORGLEFT
 10
0.0
 20
0.0
 30
0.0
  9
$PUCSORGRIGHT
 10
0.0
 20
0.0
 30
0.0
  9
$PUCSORGFRONT
 10
0.0
 20
0.0
 30
0.0
  9
$PUCSORGBACK
 10
0.0
 20
0.0
 30
0.0
  9
$USERI1
 70
0
  9
$USERI2
 70
0
  9
$USERI3
 70
0
  9
$USERI4
 70
0
  9
$USERI5
 70
0
  9
$USERR1
 40
0.0
  9
$USERR2
 40
0.0
  9
$USERR3
 40
0.0
  9
$USERR4
 40
0.0
  9
$USERR5
 40
0.0
  9
$WORLDVIEW
 70
1
  9
$SHADEDGE
 70
3
  9
$SHADEDIF
 70
70
  9
$TILEMODE
 70
1
  9
$MAXACTVP
 70
64
  9
$PINSBASE
 10
0.0
 20
0.0
 30
0.0
  9
$PLIMCHECK
 70
0
  9
$PEXTMIN
 10
1e+20
 20
1e+20
 30
1e+20
  9
$PEXTMAX
 10
-1e+20
 20
-1e+20
 30
-1e+20
  9
$PLIMMIN
 10
0.0
 20
0.0
  9
$PLIMMAX
 10
420.0
 20
297.0
  9
$UNITMODE
 70
0
  9
$VISRETAIN
 70
1
  9
$PLINEGEN
 70
0
  9
$PSLTSCALE
 70
1
  9
$TREEDEPTH
 70
3020
  9
$CMLSTYLE
  2
Standard
  9
$CMLJUST
 70
0
  9
$CMLSCALE
 40
20.0
  9
$PROXYGRAPHICS
 70
1
  9
$MEASUREMENT
 70
1
  9
$CELWEIGHT
370
-1
  9
$ENDCAPS
280
0
  9
$JOINSTYLE
280
0
  9
$LWDISPLAY
290
0
  9
$INSUNITS
 70
6
  9
$HYPERLINKBASE
  1

  9
$STYLESHEET
  1

  9
$XEDIT
290
1
  9
$CEPSNTYPE
380
0
  9
$PSTYLEMODE
290
1
  9
$FINGERPRINTGUID
  2
{A64A4C00-AC8B-441A-A77E-23A59851AB93}
  9
$VERSIONGUID
  2
{1F3FC523-5E6C-456E-8CE4-191B23049017}
  9
$EXTNAMES
290
1
  9
$PSVPSCALE
 40
0.0
  9
$OLESTARTUP
290
0
  9
$SORTENTS
280
127
  9
$INDEXCTL
280
0
  9
$HIDETEXT
280
1
  9
$XCLIPFRAME
280
1
  9
$HALOGAP
280
0
  9
$OBSCOLOR
 70
257
  9
$OBSLTYPE
280
0
  9
$INTERSECTIONDISPLAY
280
0
  9
$INTERSECTIONCOLOR
 70
257
  9
$DIMASSOC
280
2
  9
$PROJECTNAME
  1

  9
$CAMERADISPLAY
290
0
  9
$LENSLENGTH
 40
50.0
  9
$CAMERAHEIGHT
 40
0.0
  9
$STEPSPERSEC
 40
24.0
  9
$STEPSIZE
 40
100.0
  9
$3DDWFPREC
 40
2.0
  9
$PSOLWIDTH
 40
0.005
  9
$PSOLHEIGHT
 40
0.08
  9
$LOFTANG1
 40
1.570796326795
  9
$LOFTANG2
 40
1.570796326795
  9
$LOFTMAG1
 40
0.0
  9
$LOFTMAG2
 40
0.0
  9
$LOFTPARAM
 70
7
  9
$LOFTNORMALS
280
1
  9
$LATITUDE
 40
37.795
  9
$LONGITUDE
 40
-122.394
  9
$NORTHDIRECTION
 40
0.0
  9
$TIMEZONE
 70
-8000
  9
$LIGHTGLYPHDISPLAY
280
1
  9
$TILEMODELIGHTSYNCH
280
1
  9
$CMATERIAL
347
20
  9
$SOLIDHIST
280
0
  9
$SHOWHIST
280
1
  9
$DWFFRAME
280
2
  9
$DGNFRAME
280
2
  9
$REALWORLDSCALE
290
1
  9
$INTERFERECOLOR
 62
256
  9
$CSHADOW
280
0
  9
$SHADOWPLANELOCATION
 40
0.0
  0
ENDSEC
  0
SECTION
  2
CLASSES
  0
CLASS
  1
ACDBDICTIONARYWDFLT
  2
AcDbDictionaryWithDefault
  3
ObjectDBX Classes
 90
0
 91
0
280
0
281
0
  0
CLASS
  1
SUN
  2
AcDbSun
  3
SCENEOE
 90
1153
 91
0
280
0
281
0
  0
CLASS
  1
VISUALSTYLE
  2
AcDbVisualStyle
  3
ObjectDBX Classes
 90
4095
 91
0
280
0
281
0
  0
CLASS
  1
MATERIAL
  2
AcDbMaterial
  3
ObjectDBX Classes
 90
1153
 91
0
280
0
281
0
  0
CLASS
  1
SCALE
  2
AcDbScale
  3
ObjectDBX Classes
 90
1153
 91
0
280
0
281
0
  0
CLASS
  1
TABLESTYLE
  2
AcDbTableStyle
  3
ObjectDBX Classes
 90
4095
 91
0
280
0
281
0
  0
CLASS
  1
MLEADERSTYLE
  2
AcDbMLeaderStyle
  3
ACDB_MLEADERSTYLE_CLASS
 90
4095
 91
0
280
0
281
0
  0
CLASS
  1
DICTIONARYVAR
  2
AcDbDictionaryVar
  3
ObjectDBX Classes
 90
0
 91
0
280
0
281
0
  0
CLASS
  1
CELLSTYLEMAP
  2
AcDbCellStyleMap
  3
ObjectDBX Classes
 90
1152
 91
0
280
0
281
0
  0
CLASS
  1
MENTALRAYRENDERSETTINGS
  2
AcDbMentalRayRenderSettings
  3
SCENEOE
 90
1024
 91
0
280
0
281
0
  0
CLASS
  1
ACDBDETAILVIEWSTYLE
  2
AcDbDetailViewStyle
  3
ObjectDBX Classes
 90
1025
 91
0
280
0
281
0
  0
CLASS
  1
ACDBSECTIONVIEWSTYLE
  2
AcDbSectionViewStyle
  3
ObjectDBX Classes
 90
1025
 91
0
280
0
281
0
  0
CLASS
  1
RASTERVARIABLES
  2
AcDbRasterVariables
  3
ISM
 90
0
 91
0
280
0
281
0
  0
CLASS
  1
LAYOUT
  2
AcDbLayout
  3
ObjectDBX Classes
 90
0
 91
0
280
0
281
0
  0
CLASS
  1
ACDBPLACEHOLDER
  2
AcDbPlaceHolder
  3
ObjectDBX Classes
 90
0
 91
0
280
0
281
0
  0
ENDSEC
  0
SECTION
  2
TABLES
  0
TABLE
  2
VPORT
  5
8
330
0
100
AcDbSymbolTable
 70
1
  0
VPORT
  5
23
330
8
100
AcDbSymbolTableRecord
100
AcDbViewportTableRecord
  2
*Active
 70
0
 10
0.0
 20
0.0
 11
1.0
 21
1.0
 12
0.0
 22
0.0
 13
0.0
 23
0.0
 14
0.5
 24
0.5
 15
0.5
 25
0.5
 16
0.0
 26
0.0
 36
1.0
 17
0.0
 27
0.0
 37
0.0
 40
1000.0
 41
1.34
 42
50.0
 43
0.0
 44
0.0
 50
0.0
 51
0.0
 71
0
 72
1000
 73
1
 74
3
 75
0
 76
0
 77
0
 78
0
281
0
 65
0
146
0.0
  0
ENDTAB
  0
TABLE
  2
LTYPE
  5
2
330
0
100
AcDbSymbolTable
 70
4
  0
LTYPE
  5
24
330
2
100
AcDbSymbolTableRecord
100
AcDbLinetypeTableRecord
  2
ByBlock
 70
0
  3

 72
65
 73
0
 40
0.0
  0
LTYPE
  5
25
330
2
100
AcDbSymbolTableRecord
100
AcDbLinetypeTableRecord
  2
ByLayer
 70
0
  3

 72
65
 73
0
 40
0.0
  0
LTYPE
  5
26
330
2
100
AcDbSymbolTableRecord
100
AcDbLinetypeTableRecord
  2
Continuous
 70
0
  3

 72
65
 73
0
 40
0.0
  0
LTYPE
  5
34
330
2
100
AcDbSymbolTableRecord
100
AcDbLinetypeTableRecord
  2
DASHED
 70
0
  3
Dashed ____  ____
 72
65
 73
2
 40
8.0
 49
5.0
 74
0
 49
-3.0
 74
0
  0
ENDTAB
  0
TABLE
  2
LAYER
  5
1
330
0
100
AcDbSymbolTable
 70
6
  0
LAYER
  5
27
330
1
100
AcDbSymbolTableRecord
100
AcDbLayerTableRecord
  2
0
 70
0
 62
7
  6
Continuous
370
-3
390
13
347
21
  0
LAYER
  5
28
330
1
100
AcDbSymbolTableRecord
100
AcDbLayerTableRecord
  2
Defpoints
 70
0
 62
7
  6
Continuous
290
0
370
-3
390
13
347
21
  0
LAYER
  5
2F
330
1
100
AcDbSymbolTableRecord
100
AcDbLayerTableRecord
  2
WAVE
 70
0
 62
7
  6
Continuous
370
-3
390
13
347
21
  0
LAYER
  5
30
330
1
100
AcDbSymbolTableRecord
100
AcDbLayerTableRecord
  2
BASE
 70
0
 62
8
  6
Continuous
370
-3
390
13
347
21
  0
LAYER
  5
31
330
1
100
AcDbSymbolTableRecord
100
AcDbLayerTableRecord
  2
TEXT
 70
0
 62
7
  6
Continuous
370
-3
390
13
347
21
  0
LAYER
  5
32
330
1
100
AcDbSymbolTableRecord
100
AcDbLayerTableRecord
  2
CLK
 70
0
 62
7
  6
Continuous
370
-3
390
13
347
21
  0
ENDTAB
  0
TABLE
  2
STYLE
  5
5
330
0
100
AcDbSymbolTable
 70
2
  0
STYLE
  5
29
330
5
100
AcDbSymbolTableRecord
100
AcDbTextStyleTableRecord
  2
Standard
 70
0
 40
0.0
 41
1.0
 50
0.0
 71
0
 42
2.5
  3
txt
  4

  0
STYLE
  5
33
330
5
100
AcDbSymbolTableRecord
100
AcDbTextStyleTableRecord
  2
TNR
 70
0
 40
0.0
 41
1.0
 50
0.0
 71
0
 42
2.5
  3
Times New Roman.ttf
  4

  0
ENDTAB
  0
TABLE
  2
VIEW
  5
7
330
0
100
AcDbSymbolTable
 70
0
  0
ENDTAB
  0
TABLE
  2
UCS
  5
6
330
0
100
AcDbSymbolTable
 70
0
  0
ENDTAB
  0
TABLE
  2
APPID
  5
3
330
0
100
AcDbSymbolTable
 70
3
  0
APPID
  5
2A
330
3
100
AcDbSymbolTableRecord
100
AcDbRegAppTableRecord
  2
ACAD
 70
0
  0
APPID
  5
94
330
3
100
AcDbSymbolTableRecord
100
AcDbRegAppTableRecord
  2
HATCHBACKGROUNDCOLOR
 70
0
  0
APPID
  5
95
330
3
100
AcDbSymbolTableRecord
100
AcDbRegAppTableRecord
  2
EZDXF
 70
0
  0
ENDTAB
  0
TABLE
  2
DIMSTYLE
  5
4
330
0
100
AcDbSymbolTable
 70
1
100
AcDbDimStyleTable
  0
DIMSTYLE
105
2B
330
4
100
AcDbSymbolTableRecord
100
AcDbDimStyleTableRecord
  2
Standard
 70
0
 40
1.0
 41
2.5
 42
0.625
 43
3.75
 44
1.25
 45
0.0
 46
0.0
 47
0.0
 48
0.0
 49
2.5
140
2.5
141
2.5
142
0.0
143
0.03937007874
144
1.0
145
0.0
146
1.0
147
0.625
148
0.0
 69
0
 70
0
 71
0
 72
0
 73
0
 74
0
 75
0
 76
0
 77
1
 78
8
 79
3
170
0
171
3
172
1
173
0
174
0
175
0
176
0
177
0
178
0
179
2
271
2
272
2
273
2
274
3
275
0
276
0
277
2
278
44
279
0
280
0
281
0
282
0
283
0
284
8
285
0
286
0
288
0
289
3
290
0
371
-2
372
-2
  0
ENDTAB
  0
TABLE
  2
BLOCK_RECORD
  5
9
330
0
100
AcDbSymbolTable
 70
2
  0
BLOCK_RECORD
  5
17
330
9
100
AcDbSymbolTableRecord
100
AcDbBlockTableRecord
  2
*Model_Space
340
1A
 70
0
280
1
281
0
  0
BLOCK_RECORD
  5
1B
330
9
100
AcDbSymbolTableRecord
100
AcDbBlockTableRecord
  2
*Paper_Space
340
1E
 70
0
280
1
281
0
  0
ENDTAB
  0
ENDSEC
  0
SECTION
  2
BLOCKS
  0
BLOCK
  5
18
330
17
100
AcDbEntity
  8
0
100
AcDbBlockBegin
  2
*Model_Space
 70
0
 10
0.0
 20
0.0
 30
0.0
  3
*Model_Space
  1

  0
ENDBLK
  5
19
330
17
100
AcDbEntity
  8
0
100
AcDbBlockEnd
  0
BLOCK
  5
1C
330
1B
100
AcDbEntity
  8
0
100
AcDbBlockBegin
  2
*Paper_Space
 70
0
 10
0.0
 20
0.0
 30
0.0
  3
*Paper_Space
  1

  0
ENDBLK
  5
1D
330
1B
100
AcDbEntity
  8
0
100
AcDbBlockEnd
  0
ENDSEC
  0
SECTION
  2
ENTITIES
  0
TEXT
  5
35
330
17
100
AcDbEntity
  8
TEXT
100
AcDbText
 10
42.0
 20
94.0
 30
0.0
 40
10.0
  1
A
  7
TNR
 11
42.0
 21
94.0
 31
0.0
100
AcDbText
  0
TEXT
  5
36
330
17
100
AcDbEntity
  8
TEXT
100
AcDbText
 10
12.0
 20
76.0
 30
0.0
 40
10.0
  1
CLK
  7
TNR
 11
12.0
 21
76.0
 31
0.0
100
AcDbText
  0
LINE
  5
37
330
17
100
AcDbEntity
  8
BASE
100
AcDbLine
 10
34.0
 20
76.0
 30
0.0
 11
37.0
 21
76.0
 31
0.0
  0
LINE
  5
38
330
17
100
AcDbEntity
  8
BASE
100
AcDbLine
 10
39.0
 20
76.0
 30
0.0
 11
78.44
 21
76.0
 31
0.0
  0
LINE
  5
39
330
17
100
AcDbEntity
  8
BASE
100
AcDbLine
 10
80.44
 20
76.0
 30
0.0
 11
101.64
 21
76.0
 31
0.0
  0
LINE
  5
3A
330
17
100
AcDbEntity
  8
BASE
100
AcDbLine
 10
103.64
 20
76.0
 30
0.0
 11
106.64
 21
76.0
 31
0.0
  0
CIRCLE
  5
3B
330
17
100
AcDbEntity
  8
WAVE
100
AcDbCircle
 10
36.8
 20
76.0
 30
0.0
 40
0.275
  0
CIRCLE
  5
3C
330
17
100
AcDbEntity
  8
WAVE
100
AcDbCircle
 10
38.0
 20
76.0
 30
0.0
 40
0.275
  0
CIRCLE
  5
3D
330
17
100
AcDbEntity
  8
WAVE
100
AcDbCircle
 10
39.2
 20
76.0
 30
0.0
 40
0.275
  0
CIRCLE
  5
3E
330
17
100
AcDbEntity
  8
WAVE
100
AcDbCircle
 10
101.44
 20
76.0
 30
0.0
 40
0.275
  0
CIRCLE
  5
3F
330
17
100
AcDbEntity
  8
WAVE
100
AcDbCircle
 10
102.64
 20
76.0
 30
0.0
 40
0.275
  0
CIRCLE
  5
40
330
17
100
AcDbEntity
  8
WAVE
100
AcDbCircle
 10
103.84
 20
76.0
 30
0.0
 40
0.275
  0
CIRCLE
  5
41
330
17
100
AcDbEntity
  8
WAVE
100
AcDbCircle
 10
78.24
 20
76.0
 30
0.0
 40
0.275
  0
CIRCLE
  5
42
330
17
100
AcDbEntity
  8
WAVE
100
AcDbCircle
 10
79.44
 20
76.0
 30
0.0
 40
0.275
  0
CIRCLE
  5
43
330
17
100
AcDbEntity
  8
WAVE
100
AcDbCircle
 10
80.64
 20
76.0
 30
0.0
 40
0.275
  0
LWPOLYLINE
  5
44
330
17
100
AcDbEntity
  8
CLK
100
AcDbPolyline
 90
120
 70
0
 10
42.0
 20
80.8
 10
42.6
 20
80.8
 10
42.6
 20
76.0
 10
43.2
 20
76.0
 10
43.2
 20
80.8
 10
43.800000000000004
 20
80.8
 10
43.800000000000004
 20
76.0
 10
44.400000000000006
 20
76.0
 10
44.400000000000006
 20
80.8
 10
45.00000000000001
 20
80.8
 10
45.00000000000001
 20
76.0
 10
45.60000000000001
 20
76.0
 10
45.60000000000001
 20
80.8
 10
46.20000000000001
 20
80.8
 10
46.20000000000001
 20
76.0
 10
46.80000000000001
 20
76.0
 10
46.80000000000001
 20
80.8
 10
47.40000000000001
 20
80.8
 10
47.40000000000001
 20
76.0
 10
48.000000000000014
 20
76.0
 10
48.000000000000014
 20
80.8
 10
48.600000000000016
 20
80.8
 10
48.600000000000016
 20
76.0
 10
49.20000000000002
 20
76.0
 10
49.20000000000002
 20
80.8
 10
49.80000000000002
 20
80.8
 10
49.80000000000002
 20
76.0
 10
50.40000000000002
 20
76.0
 10
50.40000000000002
 20
80.8
 10
51.00000000000002
 20
80.8
 10
51.00000000000002
 20
76.0
 10
51.60000000000002
 20
76.0
 10
51.60000000000002
 20
80.8
 10
52.200000000000024
 20
80.8
 10
52.200000000000024
 20
76.0
 10
52.800000000000026
 20
76.0
 10
52.800000000000026
 20
80.8
 10
53.40000000000003
 20
80.8
 10
53.40000000000003
 20
76.0
 10
54.00000000000003
 20
76.0
 10
54.00000000000003
 20
80.8
 10
54.60000000000003
 20
80.8
 10
54.60000000000003
 20
76.0
 10
55.20000000000003
 20
76.0
 10
55.20000000000003
 20
80.8
 10
55.80000000000003
 20
80.8
 10
55.80000000000003
 20
76.0
 10
56.400000000000034
 20
76.0
 10
56.400000000000034
 20
80.8
 10
57.000000000000036
 20
80.8
 10
57.000000000000036
 20
76.0
 10
57.60000000000004
 20
76.0
 10
57.60000000000004
 20
80.8
 10
58.20000000000004
 20
80.8
 10
58.20000000000004
 20
76.0
 10
58.80000000000004
 20
76.0
 10
58.80000000000004
 20
80.8
 10
59.40000000000004
 20
80.8
 10
59.40000000000004
 20
76.0
 10
60.00000000000004
 20
76.0
 10
60.00000000000004
 20
80.8
 10
60.600000000000044
 20
80.8
 10
60.600000000000044
 20
76.0
 10
61.200000000000045
 20
76.0
 10
61.200000000000045
 20
80.8
 10
61.80000000000005
 20
80.8
 10
61.80000000000005
 20
76.0
 10
62.40000000000005
 20
76.0
 10
62.40000000000005
 20
80.8
 10
63.00000000000005
 20
80.8
 10
63.00000000000005
 20
76.0
 10
63.60000000000005
 20
76.0
 10
63.60000000000005
 20
80.8
 10
64.20000000000005
 20
80.8
 10
64.20000000000005
 20
76.0
 10
64.80000000000004
 20
76.0
 10
64.80000000000004
 20
80.8
 10
65.40000000000003
 20
80.8
 10
65.40000000000003
 20
76.0
 10
66.00000000000003
 20
76.0
 10
66.00000000000003
 20
80.8
 10
66.60000000000002
 20
80.8
 10
66.60000000000002
 20
76.0
 10
67.20000000000002
 20
76.0
 10
67.20000000000002
 20
80.8
 10
67.80000000000001
 20
80.8
 10
67.80000000000001
 20
76.0
 10
68.4
 20
76.0
 10
68.4
 20
80.8
 10
69.0
 20
80.8
 10
69.0
 20
76.0
 10
69.6
 20
76.0
 10
69.6
 20
80.8
 10
70.19999999999999
 20
80.8
 10
70.19999999999999
 20
76.0
 10
70.79999999999998
 20
76.0
 10
70.79999999999998
 20
80.8
 10
71.39999999999998
 20
80.8
 10
71.39999999999998
 20
76.0
 10
71.99999999999997
 20
76.0
 10
71.99999999999997
 20
80.8
 10
72.59999999999997
 20
80.8
 10
72.59999999999997
 20
76.0
 10
73.19999999999996
 20
76.0
 10
73.19999999999996
 20
80.8
 10
73.79999999999995
 20
80.8
 10
73.79999999999995
 20
76.0
 10
74.39999999999995
 20
76.0
 10
74.39999999999995
 20
80.8
 10
74.99999999999994
 20
80.8
 10
74.99999999999994
 20
76.0
 10
75.59999999999994
 20
76.0
 10
75.59999999999994
 20
80.8
 10
76.19999999999993
 20
80.8
 10
76.19999999999993
 20
76.0
 10
76.79999999999993
 20
76.0
 10
76.79999999999993
 20
80.8
 10
77.39999999999992
 20
80.8
 10
77.39999999999992
 20
76.0
 10
77.53999999999999
 20
76.0
  0
LWPOLYLINE
  5
45
330
17
100
AcDbEntity
  8
CLK
100
AcDbPolyline
 90
60
 70
0
 10
81.34
 20
76.0
 10
81.59999999999988
 20
76.0
 10
81.59999999999988
 20
80.8
 10
82.19999999999987
 20
80.8
 10
82.19999999999987
 20
76.0
 10
82.79999999999987
 20
76.0
 10
82.79999999999987
 20
80.8
 10
83.39999999999986
 20
80.8
 10
83.39999999999986
 20
76.0
 10
83.99999999999986
 20
76.0
 10
83.99999999999986
 20
80.8
 10
84.59999999999985
 20
80.8
 10
84.59999999999985
 20
76.0
 10
85.19999999999985
 20
76.0
 10
85.19999999999985
 20
80.8
 10
85.79999999999984
 20
80.8
 10
85.79999999999984
 20
76.0
 10
86.39999999999984
 20
76.0
 10
86.39999999999984
 20
80.8
 10
86.99999999999983
 20
80.8
 10
86.99999999999983
 20
76.0
 10
87.59999999999982
 20
76.0
 10
87.59999999999982
 20
80.8
 10
88.19999999999982
 20
80.8
 10
88.19999999999982
 20
76.0
 10
88.79999999999981
 20
76.0
 10
88.79999999999981
 20
80.8
 10
89.3999999999998
 20
80.8
 10
89.3999999999998
 20
76.0
 10
89.9999999999998
 20
76.0
 10
89.9999999999998
 20
80.8
 10
90.5999999999998
 20
80.8
 10
90.5999999999998
 20
76.0
 10
91.19999999999979
 20
76.0
 10
91.19999999999979
 20
80.8
 10
91.79999999999978
 20
80.8
 10
91.79999999999978
 20
76.0
 10
92.39999999999978
 20
76.0
 10
92.39999999999978
 20
80.8
 10
92.99999999999977
 20
80.8
 10
92.99999999999977
 20
76.0
 10
93.59999999999977
 20
76.0
 10
93.59999999999977
 20
80.8
 10
94.19999999999976
 20
80.8
 10
94.19999999999976
 20
76.0
 10
94.79999999999976
 20
76.0
 10
94.79999999999976
 20
80.8
 10
95.39999999999975
 20
80.8
 10
95.39999999999975
 20
76.0
 10
95.99999999999974
 20
76.0
 10
95.99999999999974
 20
80.8
 10
96.59999999999974
 20
80.8
 10
96.59999999999974
 20
76.0
 10
97.19999999999973
 20
76.0
 10
97.19999999999973
 20
80.8
 10
97.79999999999973
 20
80.8
 10
97.79999999999973
 20
76.0
 10
98.39999999999972
 20
76.0
 10
98.39999999999972
 20
80.8
 10
98.64
 20
80.8
  0
TEXT
  5
46
330
17
100
AcDbEntity
  8
TEXT
100
AcDbText
 10
12.0
 20
58.0
 30
0.0
 40
10.0
  1
XY_0
  7
TNR
 11
12.0
 21
58.0
 31
0.0
100
AcDbText
  0
LINE
  5
47
330
17
100
AcDbEntity
  8
BASE
100
AcDbLine
 10
34.0
 20
58.0
 30
0.0
 11
37.0
 21
58.0
 31
0.0
  0
LINE
  5
48
330
17
100
AcDbEntity
  8
BASE
100
AcDbLine
 10
39.0
 20
58.0
 30
0.0
 11
78.44
 21
58.0
 31
0.0
  0
LINE
  5
49
330
17
100
AcDbEntity
  8
BASE
100
AcDbLine
 10
80.44
 20
58.0
 30
0.0
 11
101.64
 21
58.0
 31
0.0
  0
LINE
  5
4A
330
17
100
AcDbEntity
  8
BASE
100
AcDbLine
 10
103.64
 20
58.0
 30
0.0
 11
106.64
 21
58.0
 31
0.0
  0
CIRCLE
  5
4B
330
17
100
AcDbEntity
  8
WAVE
100
AcDbCircle
 10
36.8
 20
58.0
 30
0.0
 40
0.275
  0
CIRCLE
  5
4C
330
17
100
AcDbEntity
  8
WAVE
100
AcDbCircle
 10
38.0
 20
58.0
 30
0.0
 40
0.275
  0
CIRCLE
  5
4D
330
17
100
AcDbEntity
  8
WAVE
100
AcDbCircle
 10
39.2
 20
58.0
 30
0.0
 40
0.275
  0
CIRCLE
  5
4E
330
17
100
AcDbEntity
  8
WAVE
100
AcDbCircle
 10
101.44
 20
58.0
 30
0.0
 40
0.275
  0
CIRCLE
  5
4F
330
17
100
AcDbEntity
  8
WAVE
100
AcDbCircle
 10
102.64
 20
58.0
 30
0.0
 40
0.275
  0
CIRCLE
  5
50
330
17
100
AcDbEntity
  8
WAVE
100
AcDbCircle
 10
103.84
 20
58.0
 30
0.0
 40
0.275
  0
CIRCLE
  5
51
330
17
100
AcDbEntity
  8
WAVE
100
AcDbCircle
 10
78.24
 20
58.0
 30
0.0
 40
0.275
  0
CIRCLE
  5
52
330
17
100
AcDbEntity
  8
WAVE
100
AcDbCircle
 10
79.44
 20
58.0
 30
0.0
 40
0.275
  0
CIRCLE
  5
53
330
17
100
AcDbEntity
  8
WAVE
100
AcDbCircle
 10
80.64
 20
58.0
 30
0.0
 40
0.275
  0
LWPOLYLINE
  5
54
330
17
100
AcDbEntity
  8
WAVE
  6
DASHED
100
AcDbPolyline
 90
362
 70
0
 10
42.0
 20
58.0
 10
44.4
 20
58.0
 10
44.43254237288136
 20
58.02357360704191
 10
44.46508474576271
 20
58.054128525270286
 10
44.49762711864407
 20
58.09327515290632
 10
44.53016949152543
 20
58.14284571913493
 10
44.56271186440678
 20
58.204878739519955
 10
44.59525423728814
 20
58.281586445423834
 10
44.62779661016949
 20
58.375302257063154
 10
44.66033898305085
 20
58.488406122226124
 10
44.6928813559322
 20
58.62322671780634
 10
44.72542372881356
 20
58.78192110765944
 10
44.75796610169491
 20
58.966334417427674
 10
44.79050847457627
 20
59.1778443185728
 10
44.82305084745763
 20
59.41719744654647
 10
44.85559322033898
 20
59.684347097735206
 10
44.88813559322034
 20
59.97830340648755
 10
44.92067796610169
 20
60.29700843403242
 10
44.95322033898305
 20
60.63724895882108
 10
44.98576271186441
 20
60.994619046043404
 10
45.01830508474576
 20
61.36354257904216
 10
45.05084745762712
 20
61.73736285434307
 10
45.08338983050847
 20
62.10850220142036
 10
45.11593220338983
 20
62.4686896476615
 10
45.148474576271184
 20
62.809249288271275
 10
45.18101694915254
 20
63.12143671058811
 10
45.2135593220339
 20
63.396806078406
 10
45.246101694915254
 20
63.62758680994093
 10
45.27864406779661
 20
63.807046618335264
 10
45.311186440677965
 20
63.929817335012096
 10
45.34372881355932
 20
63.992161542064714
 10
45.376271186440675
 20
63.992161542064714
 10
45.408813559322034
 20
63.929817335012096
 10
45.441355932203386
 20
63.807046618335264
 10
45.473898305084745
 20
63.62758680994094
 10
45.506440677966104
 20
63.396806078406
 10
45.538983050847456
 20
63.12143671058811
 10
45.571525423728815
 20
62.809249288271275
 10
45.60406779661017
 20
62.4686896476615
 10
45.636610169491526
 20
62.10850220142036
 10
45.669152542372885
 20
61.73736285434307
 10
45.70169491525424
 20
61.36354257904216
 10
45.734237288135596
 20
60.994619046043404
 10
45.76677966101695
 20
60.63724895882108
 10
45.79932203389831
 20
60.29700843403243
 10
45.83186440677966
 20
59.97830340648755
 10
45.86440677966102
 20
59.684347097735206
 10
45.896949152542376
 20
59.41719744654646
 10
45.92949152542373
 20
59.1778443185728
 10
45.96203389830509
 20
58.966334417427674
 10
45.99457627118644
 20
58.78192110765944
 10
46.0271186440678
 20
58.62322671780634
 10
46.05966101694915
 20
58.488406122226124
 10
46.09220338983051
 20
58.375302257063154
 10
46.12474576271187
 20
58.281586445423834
 10
46.15728813559322
 20
58.204878739519955
 10
46.18983050847458
 20
58.14284571913493
 10
46.22237288135593
 20
58.09327515290632
 10
46.25491525423729
 20
58.054128525270286
 10
46.28745762711864
 20
58.02357360704191
 10
46.32
 20
58.0
 10
48.72
 20
58.0
 10
48.768813559322034
 20
58.02475228739401
 10
48.81762711864407
 20
58.0568349515338
 10
48.866440677966104
 20
58.09793891055164
 10
48.91525423728814
 20
58.14998800509168
 10
48.964067796610166
 20
58.21512267649595
 10
49.0128813559322
 20
58.29566576769503
 10
49.061694915254236
 20
58.39406736991631
 10
49.11050847457627
 20
58.51282642833743
 10
49.159322033898306
 20
58.65438805369666
 10
49.20813559322034
 20
58.82101716304242
 10
49.256949152542376
 20
59.014651138299065
 10
49.3057627118644
 20
59.236736534501446
 10
49.35457627118644
 20
59.488057318873786
 10
49.40338983050847
 20
59.768564452621966
 10
49.45220338983051
 20
60.07721857681192
 10
49.50101694915254
 20
60.411858855734046
 10
49.54983050847458
 20
60.76911140676214
 10
49.59864406779661
 20
61.144349998345575
 10
49.64745762711864
 20
61.53171970799427
 10
49.696271186440676
 20
61.92423099706023
 10
49.74508474576271
 20
62.313927311491376
 10
49.793898305084745
 20
62.692124130044576
 10
49.84271186440678
 20
63.049711752684836
 10
49.891525423728815
 20
63.37750854611752
 10
49.94033898305085
 20
63.6666463823263
 10
49.98915254237288
 20
63.908966150437976
 10
50.03796610169492
 20
64.09739894925202
 10
50.08677966101695
 20
64.2263082017627
 10
50.13559322033898
 20
64.29176961916795
 10
50.18440677966102
 20
64.29176961916795
 10
50.23322033898305
 20
64.2263082017627
 10
50.28203389830509
 20
64.09739894925202
 10
50.330847457627115
 20
63.908966150437976
 10
50.37966101694916
 20
63.6666463823263
 10
50.428474576271185
 20
63.37750854611752
 10
50.47728813559322
 20
63.049711752684836
 10
50.526101694915255
 20
62.692124130044576
 10
50.57491525423729
 20
62.313927311491376
 10
50.623728813559325
 20
61.92423099706023
 10
50.67254237288135
 20
61.53171970799427
 10
50.721355932203394
 20
61.14434999834557
 10
50.77016949152542
 20
60.76911140676214
 10
50.81898305084746
 20
60.411858855734046
 10
50.86779661016949
 20
60.07721857681193
 10
50.91661016949153
 20
59.768564452621966
 10
50.96542372881356
 20
59.48805731887379
 10
51.01423728813559
 20
59.236736534501446
 10
51.06305084745763
 20
59.01465113829906
 10
51.11186440677966
 20
58.82101716304242
 10
51.160677966101694
 20
58.65438805369666
 10
51.20949152542373
 20
58.512826428337426
 10
51.258305084745764
 20
58.39406736991631
 10
51.3071186440678
 20
58.29566576769503
 10
51.35593220338983
 20
58.21512267649595
 10
51.40474576271187
 20
58.14998800509168
 10
51.4535593220339
 20
58.09793891055164
 10
51.50237288135593
 20
58.0568349515338
 10
51.55118644067797
 20
58.02475228739401
 10
51.6
 20
58.0
 10
54.0
 20
58.0
 10
54.048813559322035
 20
58.02475228739401
 10
54.09762711864407
 20
58.0568349515338
 10
54.1464406779661
 20
58.09793891055164
 10
54.19525423728813
 20
58.14998800509168
 10
54.24406779661017
 20
58.21512267649595
 10
54.2928813559322
 20
58.29566576769503
 10
54.34169491525424
 20
58.39406736991631
 10
54.39050847457627
 20
58.51282642833743
 10
54.43932203389831
 20
58.65438805369666
 10
54.488135593220335
 20
58.82101716304242
 10
54.53694915254237
 20
59.01465113829906
 10
54.585762711864405
 20
59.236736534501446
 10
54.63457627118644
 20
59.48805731887379
 10
54.683389830508474
 20
59.768564452621966
 10
54.73220338983051
 20
60.07721857681193
 10
54.781016949152544
 20
60.411858855734046
 10
54.82983050847457
 20
60.76911140676214
 10
54.87864406779661
 20
61.14434999834557
 10
54.92745762711864
 20
61.53171970799427
 10
54.97627118644068
 20
61.92423099706023
 10
55.02508474576271
 20
62.313927311491376
 10
55.07389830508475
 20
62.692124130044576
 10
55.12271186440678
 20
63.049711752684836
 10
55.17152542372881
 20
63.37750854611752
 10
55.220338983050844
 20
63.6666463823263
 10
55.26915254237288
 20
63.908966150437976
 10
55.317966101694914
 20
64.09739894925202
 10
55.36677966101695
 20
64.2263082017627
 10
55.415593220338984
 20
64.29176961916795
 10
55.46440677966102
 20
64.29176961916795
 10
55.51322033898305
 20
64.2263082017627
 10
55.56203389830508
 20
64.09739894925202
 10
55.610847457627116
 20
63.908966150437976
 10
55.65966101694915
 20
63.6666463823263
 10
55.708474576271186
 20
63.37750854611752
 10
55.75728813559322
 20
63.049711752684836
 10
55.806101694915256
 20
62.692124130044576
 10
55.854915254237284
 20
62.313927311491376
 10
55.90372881355932
 20
61.92423099706023
 10
55.952542372881354
 20
61.53171970799427
 10
56.00135593220339
 20
61.14434999834557
 10
56.05016949152542
 20
60.76911140676214
 10
56.09898305084746
 20
60.411858855734046
 10
56.14779661016949
 20
60.07721857681193
 10
56.19661016949152
 20
59.768564452621966
 10
56.245423728813556
 20
59.48805731887379
 10
56.29423728813559
 20
59.236736534501446
 10
56.343050847457626
 20
59.01465113829906
 10
56.39186440677966
 20
58.82101716304242
 10
56.440677966101696
 20
58.65438805369666
 10
56.48949152542373
 20
58.512826428337426
 10
56.53830508474576
 20
58.39406736991631
 10
56.58711864406779
 20
58.29566576769503
 10
56.63593220338983
 20
58.21512267649595
 10
56.68474576271186
 20
58.14998800509168
 10
56.7335593220339
 20
58.09793891055164
 10
56.78237288135593
 20
58.0568349515338
 10
56.83118644067797
 20
58.02475228739401
 10
56.879999999999995
 20
58.0
 10
59.28
 20
58.0
 10
59.32881355932203
 20
58.02475228739401
 10
59.37762711864407
 20
58.0568349515338
 10
59.4264406779661
 20
58.09793891055164
 10
59.475254237288134
 20
58.14998800509168
 10
59.52406779661017
 20
58.21512267649595
 10
59.5728813559322
 20
58.29566576769503
 10
59.62169491525424
 20
58.39406736991631
 10
59.670508474576266
 20
58.512826428337426
 10
59.71932203389831
 20
58.654388053696664
 10
59.768135593220336
 20
58.82101716304242
 10
59.81694915254237
 20
59.01465113829906
 10
59.865762711864406
 20
59.23673653450144
 10
59.91457627118644
 20
59.48805731887379
 10
59.963389830508476
 20
59.768564452621966
 10
60.0122033898305
 20
60.077218576811916
 10
60.061016949152545
 20
60.41185885573405
 10
60.10983050847457
 20
60.76911140676214
 10
60.15864406779661
 20
61.14434999834557
 10
60.20745762711864
 20
61.531719707994256
 10
60.25627118644068
 20
61.92423099706023
 10
60.30508474576271
 20
62.313927311491376
 10
60.35389830508474
 20
62.69212413004457
 10
60.40271186440678
 20
63.04971175268485
 10
60.45152542372881
 20
63.37750854611752
 10
60.500338983050845
 20
63.6666463823263
 10
60.54915254237288
 20
63.90896615043799
 10
60.597966101694915
 20
64.09739894925202
 10
60.64677966101695
 20
64.2263082017627
 10
60.69559322033898
 20
64.29176961916795
 10
60.74440677966102
 20
64.29176961916795
 10
60.79322033898305
 20
64.2263082017627
 10
60.84203389830508
 20
64.09739894925202
 10
60.89084745762712
 20
63.90896615043799
 10
60.93966101694915
 20
63.6666463823263
 10
60.98847457627119
 20
63.37750854611752
 10
61.037288135593215
 20
63.04971175268485
 10
61.08610169491526
 20
62.69212413004457
 10
61.134915254237285
 20
62.313927311491376
 10
61.18372881355932
 20
61.92423099706023
 10
61.232542372881355
 20
61.531719707994256
 10
61.28135593220339
 20
61.14434999834557
 10
61.330169491525425
 20
60.76911140676214
 10
61.37898305084745
 20
60.41185885573405
 10
61.427796610169494
 20
60.077218576811916
 10
61.47661016949152
 20
59.768564452621966
 10
61.52542372881356
 20
59.48805731887379
 10
61.57423728813559
 20
59.23673653450145
 10
61.62305084745763
 20
59.01465113829906
 10
61.67186440677966
 20
58.82101716304242
 10
61.72067796610169
 20
58.654388053696664
 10
61.76949152542373
 20
58.512826428337426
 10
61.81830508474576
 20
58.39406736991631
 10
61.867118644067794
 20
58.29566576769503
 10
61.91593220338983
 20
58.21512267649595
 10
61.964745762711864
 20
58.14998800509168
 10
62.0135593220339
 20
58.09793891055164
 10
62.06237288135593
 20
58.0568349515338
 10
62.11118644067797
 20
58.02475228739401
 10
62.16
 20
58.0
 10
64.56
 20
58.0
 10
64.60881355932203
 20
58.02475228739401
 10
64.65762711864407
 20
58.0568349515338
 10
64.7064406779661
 20
58.09793891055164
 10
64.75525423728814
 20
58.14998800509168
 10
64.80406779661017
 20
58.21512267649595
 10
64.8528813559322
 20
58.29566576769503
 10
64.90169491525424
 20
58.39406736991631
 10
64.95050847457627
 20
58.512826428337426
 10
64.99932203389831
 20
58.654388053696664
 10
65.04813559322034
 20
58.82101716304242
 10
65.09694915254238
 20
59.01465113829906
 10
65.1457627118644
 20
59.23673653450144
 10
65.19457627118643
 20
59.48805731887379
 10
65.24338983050848
 20
59.768564452621966
 10
65.2922033898305
 20
60.077218576811916
 10
65.34101694915255
 20
60.41185885573405
 10
65.38983050847457
 20
60.76911140676214
 10
65.43864406779662
 20
61.14434999834557
 10
65.48745762711864
 20
61.531719707994256
 10
65.53627118644067
 20
61.92423099706023
 10
65.58508474576271
 20
62.313927311491376
 10
65.63389830508474
 20
62.69212413004457
 10
65.68271186440678
 20
63.04971175268485
 10
65.73152542372881
 20
63.37750854611752
 10
65.78033898305085
 20
63.6666463823263
 10
65.82915254237288
 20
63.90896615043799
 10
65.87796610169491
 20
64.09739894925202
 10
65.92677966101695
 20
64.2263082017627
 10
65.97559322033898
 20
64.29176961916795
 10
66.02440677966102
 20
64.29176961916795
 10
66.07322033898305
 20
64.2263082017627
 10
66.12203389830509
 20
64.09739894925202
 10
66.17084745762712
 20
63.90896615043799
 10
66.21966101694915
 20
63.6666463823263
 10
66.26847457627119
 20
63.37750854611752
 10
66.31728813559322
 20
63.04971175268485
 10
66.36610169491526
 20
62.69212413004457
 10
66.41491525423729
 20
62.313927311491376
 10
66.46372881355933
 20
61.92423099706023
 10
66.51254237288136
 20
61.531719707994256
 10
66.56135593220338
 20
61.14434999834557
 10
66.61016949152543
 20
60.76911140676214
 10
66.65898305084745
 20
60.41185885573405
 10
66.7077966101695
 20
60.077218576811916
 10
66.75661016949152
 20
59.768564452621966
 10
66.80542372881357
 20
59.48805731887379
 10
66.8542372881356
 20
59.23673653450145
 10
66.90305084745762
 20
59.01465113829906
 10
66.95186440677966
 20
58.82101716304242
 10
67.00067796610169
 20
58.654388053696664
 10
67.04949152542373
 20
58.512826428337426
 10
67.09830508474576
 20
58.39406736991631
 10
67.1471186440678
 20
58.29566576769503
 10
67.19593220338983
 20
58.21512267649595
 10
67.24474576271186
 20
58.14998800509168
 10
67.2935593220339
 20
58.09793891055164
 10
67.34237288135593
 20
58.0568349515338
 10
67.39118644067797
 20
58.02475228739401
 10
67.44
 20
58.0
 10
69.84
 20
58.0
 10
69.87254237288136
 20
58.02357360704191
 10
69.90508474576271
 20
58.054128525270286
 10
69.93762711864407
 20
58.09327515290633
 10
69.97016949152543
 20
58.14284571913493
 10
70.00271186440678
 20
58.204878739519955
 10
70.03525423728813
 20
58.281586445423834
 10
70.0677966101695
 20
58.375302257063154
 10
70.10033898305085
 20
58.488406122226124
 10
70.1328813559322
 20
58.62322671780635
 10
70.16542372881355
 20
58.78192110765944
 10
70.19796610169492
 20
58.96633441742768
 10
70.23050847457627
 20
59.1778443185728
 10
70.26305084745763
 20
59.41719744654647
 10
70.29559322033899
 20
59.68434709773519
 10
70.32813559322034
 20
59.97830340648755
 10
70.36067796610169
 20
60.29700843403241
 10
70.39322033898304
 20
60.63724895882108
 10
70.42576271186441
 20
60.99461904604338
 10
70.45830508474576
 20
61.36354257904216
 10
70.49084745762711
 20
61.73736285434305
 10
70.52338983050848
 20
62.10850220142036
 10
70.55593220338983
 20
62.46868964766151
 10
70.58847457627118
 20
62.809249288271275
 10
70.62101694915255
 20
63.12143671058812
 10
70.6535593220339
 20
63.396806078406
 10
70.68610169491525
 20
63.62758680994094
 10
70.7186440677966
 20
63.80704661833526
 10
70.75118644067797
 20
63.929817335012096
 10
70.78372881355932
 20
63.992161542064714
 10
70.81627118644067
 20
63.992161542064714
 10
70.84881355932202
 20
63.929817335012096
 10
70.88135593220339
 20
63.80704661833526
 10
70.91389830508474
 20
63.62758680994094
 10
70.94644067796611
 20
63.396806078406
 10
70.97898305084746
 20
63.12143671058812
 10
71.01152542372881
 20
62.809249288271275
 10
71.04406779661016
 20
62.46868964766151
 10
71.07661016949152
 20
62.10850220142036
 10
71.10915254237288
 20
61.73736285434305
 10
71.14169491525423
 20
61.36354257904216
 10
71.1742372881356
 20
60.99461904604338
 10
71.20677966101695
 20
60.63724895882108
 10
71.2393220338983
 20
60.29700843403241
 10
71.27186440677966
 20
59.97830340648755
 10
71.30440677966102
 20
59.68434709773519
 10
71.33694915254237
 20
59.41719744654647
 10
71.36949152542373
 20
59.1778443185728
 10
71.40203389830508
 20
58.96633441742768
 10
71.43457627118644
 20
58.78192110765944
 10
71.4671186440678
 20
58.62322671780635
 10
71.49966101694915
 20
58.488406122226124
 10
71.5322033898305
 20
58.375302257063154
 10
71.56474576271187
 20
58.281586445423834
 10
71.59728813559322
 20
58.204878739519955
 10
71.62983050847458
 20
58.14284571913493
 10
71.66237288135594
 20
58.09327515290633
 10
71.69491525423729
 20
58.054128525270286
 10
71.72745762711864
 20
58.02357360704191
 10
71.75999999999999
 20
58.0
 10
77.53999999999999
 20
58.0
  0
LWPOLYLINE
  5
55
330
17
100
AcDbEntity
  8
WAVE
  6
DASHED
100
AcDbPolyline
 90
2
 70
0
 10
81.34
 20
58.0
 10
98.64
 20
58.0
  0
LWPOLYLINE
  5
56
330
17
100
AcDbEntity
  8
WAVE
100
AcDbPolyline
 90
362
 70
0
 10
42.0
 20
58.0
 10
44.4
 20
58.0
 10
44.43254237288136
 20
58.017740807599814
 10
44.46508474576271
 20
58.053649641059714
 10
44.49762711864407
 20
58.05156251062319
 10
44.53016949152543
 20
57.96241692500667
 10
44.56271186440678
 20
57.81575006433552
 10
44.59525423728814
 20
57.74057103502507
 10
44.62779661016949
 20
57.88212630108719
 10
44.66033898305085
 20
58.24794708493032
 10
44.6928813559322
 20
58.612435001610194
 10
44.72542372881356
 20
58.61502126374446
 10
44.75796610169491
 20
58.05143041932035
 10
44.79050847457627
 20
57.15612549893645
 10
44.82305084745763
 20
56.58732056894917
 10
44.85559322033898
 20
56.99551037046167
 10
44.88813559322034
 20
58.418178964398756
 10
44.92067796610169
 20
60.00933818295014
 10
44.95322033898305
 20
60.48086079884089
 10
44.98576271186441
 20
59.09052219447017
 10
45.01830508474576
 20
56.449095738498144
 10
45.05084745762712
 20
54.36941400131402
 10
45.08338983050847
 20
54.63800124375289
 10
45.11593220338983
 20
57.52500740107378
 10
45.148474576271184
 20
61.26217071580567
 10
45.18101694915254
 20
63.11962173038593
 10
45.2135593220339
 20
61.444480089801665
 10
45.246101694915254
 20
57.104856367859966
 10
45.27864406779661
 20
53.077166657276884
 10
45.311186440677965
 20
52.32266219999839
 10
45.34372881355932
 20
55.523965831726265
 10
45.376271186440675
 20
60.47603416827378
 10
45.408813559322034
 20
63.677337800001624
 10
45.441355932203386
 20
62.922833342723095
 10
45.473898305084745
 20
58.89514363214007
 10
45.506440677966104
 20
54.55551991019836
 10
45.538983050847456
 20
52.88037826961406
 10
45.571525423728815
 20
54.73782928419441
 10
45.60406779661017
 20
58.47499259892626
 10
45.636610169491526
 20
61.36199875624709
 10
45.669152542372885
 20
61.63058599868598
 10
45.70169491525424
 20
59.55090426150188
 10
45.734237288135596
 20
56.90947780552977
 10
45.76677966101695
 20
55.519139201159106
 10
45.79932203389831
 20
55.99066181704987
 10
45.83186440677966
 20
57.58182103560123
 10
45.86440677966102
 20
59.00448962953834
 10
45.896949152542376
 20
59.41267943105083
 10
45.92949152542373
 20
58.84387450106355
 10
45.96203389830509
 20
57.94856958067965
 10
45.99457627118644
 20
57.38497873625554
 10
46.0271186440678
 20
57.387564998389806
 10
46.05966101694915
 20
57.75205291506968
 10
46.09220338983051
 20
58.11787369891281
 10
46.12474576271187
 20
58.25942896497493
 10
46.15728813559322
 20
58.18424993566448
 10
46.18983050847458
 20
58.03758307499332
 10
46.22237288135593
 20
57.94843748937681
 10
46.25491525423729
 20
57.946350358940286
 10
46.28745762711864
 20
57.982259192400186
 10
46.32
 20
58.0
 10
48.72
 20
58.0
 10
48.768813559322034
 20
58.02369838545089
 10
48.81762711864407
 20
58.031418364922686
 10
48.866440677966104
 20
57.937491059987906
 10
48.91525423728814
 20
57.86181425437215
 10
48.964067796610166
 20
58.02286613912655
 10
49.0128813559322
 20
58.290546056099366
 10
49.061694915254236
 20
58.18170150933427
 10
49.11050847457627
 20
57.63258204881453
 10
49.159322033898306
 20
57.42756548766746
 10
49.20813559322034
 20
58.17354876196887
 10
49.256949152542376
 20
59.01141643760393
 10
49.3057627118644
 20
58.4503706878402
 10
49.35457627118644
 20
56.8295662007163
 10
49.40338983050847
 20
56.552778799046926
 10
49.45220338983051
 20
58.652405980756
 10
49.50101694915254
 20
60.41100411978377
 10
49.54983050847458
 20
58.72856031175074
 10
49.59864406779661
 20
55.33442625306762
 10
49.64745762711864
 20
55.34213098043875
 10
49.696271186440676
 20
59.62154006775536
 10
49.74508474576271
 20
62.27576126753018
 10
49.793898305084745
 20
58.746345667880135
 10
49.84271186440678
 20
53.458732966942364
 10
49.891525423728815
 20
54.3523723035275
 10
49.94033898305085
 20
60.87676257092096
 10
49.98915254237288
 20
63.74014635682475
 10
50.03796610169492
 20
58.32451683295938
 10
50.08677966101695
 20
52.14291021422574
 10
50.13559322033898
 20
54.24779397168402
 10
50.18440677966102
 20
61.752206028315896
 10
50.23322033898305
 20
63.85708978577417
 10
50.28203389830509
 20
57.675483167040376
 10
50.330847457627115
 20
52.259853643175234
 10
50.37966101694916
 20
55.12323742907924
 10
50.428474576271185
 20
61.647627696472654
 10
50.47728813559322
 20
62.54126703305761
 10
50.526101694915255
 20
57.25365433211968
 10
50.57491525423729
 20
53.7242387324698
 10
50.623728813559325
 20
56.378459932244674
 10
50.67254237288135
 20
60.65786901956134
 10
50.721355932203394
 20
60.66557374693231
 10
50.77016949152542
 20
57.27143968824923
 10
50.81898305084746
 20
55.58899588021623
 10
50.86779661016949
 20
57.34759401924402
 10
50.91661016949153
 20
59.44722120095309
 10
50.96542372881356
 20
59.170433799283714
 10
51.01423728813559
 20
57.54962931215976
 10
51.06305084745763
 20
56.98858356239609
 10
51.11186440677966
 20
57.82645123803115
 10
51.160677966101694
 20
58.572434512332556
 10
51.20949152542373
 20
58.367417951185445
 10
51.258305084745764
 20
57.81829849066573
 10
51.3071186440678
 20
57.709453943900634
 10
51.35593220338983
 20
57.97713386087346
 10
51.40474576271187
 20
58.13818574562786
 10
51.4535593220339
 20
58.062508940012094
 10
51.50237288135593
 20
57.968581635077314
 10
51.55118644067797
 20
57.97630161454911
 10
51.6
 20
58.0
 10
54.0
 20
58.0
 10
54.048813559322035
 20
58.02369838545089
 10
54.09762711864407
 20
58.031418364922686
 10
54.1464406779661
 20
57.937491059987906
 10
54.19525423728813
 20
57.86181425437215
 10
54.24406779661017
 20
58.02286613912654
 10
54.2928813559322
 20
58.29054605609936
 10
54.34169491525424
 20
58.18170150933426
 10
54.39050847457627
 20
57.63258204881453
 10
54.43932203389831
 20
57.427565487667444
 10
54.488135593220335
 20
58.173548761968895
 10
54.53694915254237
 20
59.01141643760392
 10
54.585762711864405
 20
58.45037068784022
 10
54.63457627118644
 20
56.82956620071629
 10
54.683389830508474
 20
56.55277879904696
 10
54.73220338983051
 20
58.65240598075608
 10
54.781016949152544
 20
60.41100411978377
 10
54.82983050847457
 20
58.72856031175064
 10
54.87864406779661
 20
55.33442625306761
 10
54.92745762711864
 20
55.34213098043871
 10
54.97627118644068
 20
59.6215400677554
 10
55.02508474576271
 20
62.275761267530186
 10
55.07389830508475
 20
58.74634566788009
 10
55.12271186440678
 20
53.45873296694234
 10
55.17152542372881
 20
54.35237230352754
 10
55.220338983050844
 20
60.876762570920725
 10
55.26915254237288
 20
63.7401463568247
 10
55.317966101694914
 20
58.324516832959326
 10
55.36677966101695
 20
52.142910214225786
 10
55.415593220338984
 20
54.24779397168406
 10
55.46440677966102
 20
61.75220602831608
 10
55.51322033898305
 20
63.85708978577415
 10
55.56203389830508
 20
57.6754831670405
 10
55.610847457627116
 20
52.25985364317518
 10
55.65966101694915
 20
55.12323742907914
 10
55.708474576271186
 20
61.647627696472576
 10
55.75728813559322
 20
62.54126703305759
 10
55.806101694915256
 20
57.25365433211977
 10
55.854915254237284
 20
53.72423873246979
 10
55.90372881355932
 20
56.37845993224471
 10
55.952542372881354
 20
60.65786901956149
 10
56.00135593220339
 20
60.66557374693234
 10
56.05016949152542
 20
57.27143968824913
 10
56.09898305084746
 20
55.58899588021623
 10
56.14779661016949
 20
57.34759401924398
 10
56.19661016949152
 20
59.44722120095307
 10
56.245423728813556
 20
59.17043379928368
 10
56.29423728813559
 20
57.549629312159745
 10
56.343050847457626
 20
56.98858356239608
 10
56.39186440677966
 20
57.826451238031176
 10
56.440677966101696
 20
58.57243451233255
 10
56.48949152542373
 20
58.36741795118544
 10
56.53830508474576
 20
57.818298490665725
 10
56.58711864406779
 20
57.709453943900634
 10
56.63593220338983
 20
57.977133860873465
 10
56.68474576271186
 20
58.13818574562786
 10
56.7335593220339
 20
58.062508940012094
 10
56.78237288135593
 20
57.968581635077314
 10
56.83118644067797
 20
57.97630161454911
 10
56.879999999999995
 20
58.0
 10
59.28
 20
58.0
 10
59.32881355932203
 20
58.02369838545089
 10
59.37762711864407
 20
58.03141836492268
 10
59.4264406779661
 20
57.937491059987906
 10
59.475254237288134
 20
57.86181425437215
 10
59.52406779661017
 20
58.02286613912654
 10
59.5728813559322
 20
58.290546056099366
 10
59.62169491525424
 20
58.181701509334246
 10
59.670508474576266
 20
57.632582048814555
 10
59.71932203389831
 20
57.42756548766745
 10
59.768135593220336
 20
58.17354876196888
 10
59.81694915254237
 20
59.01141643760392
 10
59.865762711864406
 20
58.45037068784024
 10
59.91457627118644
 20
56.82956620071626
 10
59.963389830508476
 20
56.55277879904695
 10
60.0122033898305
 20
58.65240598075592
 10
60.061016949152545
 20
60.411004119783776
 10
60.10983050847457
 20
58.72856031175069
 10
60.15864406779661
 20
55.33442625306765
 10
60.20745762711864
 20
55.342130980438675
 10
60.25627118644068
 20
59.62154006775553
 10
60.30508474576271
 20
62.2757612675302
 10
60.35389830508474
 20
58.74634566788045
 10
60.40271186440678
 20
53.45873296694225
 10
60.45152542372881
 20
54.35237230352769
 10
60.500338983050845
 20
60.8767625709209
 10
60.54915254237288
 20
63.74014635682465
 10
60.597966101694915
 20
58.324516832959446
 10
60.64677966101695
 20
52.14291021422583
 10
60.69559322033898
 20
54.24779397168397
 10
60.74440677966102
 20
61.75220602831627
 10
60.79322033898305
 20
63.85708978577407
 10
60.84203389830508
 20
57.67548316704027
 10
60.89084745762712
 20
52.2598536431752
 10
60.93966101694915
 20
55.12323742907905
 10
60.98847457627119
 20
61.6476276964725
 10
61.037288135593215
 20
62.54126703305764
 10
61.08610169491526
 20
57.25365433211934
 10
61.134915254237285
 20
53.72423873246981
 10
61.18372881355932
 20
56.378459932244844
 10
61.232542372881355
 20
60.657869019561566
 10
61.28135593220339
 20
60.665573746932374
 10
61.330169491525425
 20
57.27143968824918
 10
61.37898305084745
 20
55.58899588021622
 10
61.427796610169494
 20
57.34759401924417
 10
61.47661016949152
 20
59.4472212009531
 10
61.52542372881356
 20
59.17043379928364
 10
61.57423728813559
 20
57.549629312159766
 10
61.62305084745763
 20
56.98858356239609
 10
61.67186440677966
 20
57.82645123803116
 10
61.72067796610169
 20
58.57243451233255
 10
61.76949152542373
 20
58.367417951185445
 10
61.81830508474576
 20
57.8182984906657
 10
61.867118644067794
 20
57.709453943900634
 10
61.91593220338983
 20
57.97713386087346
 10
61.964745762711864
 20
58.13818574562786
 10
62.0135593220339
 20
58.062508940012094
 10
62.06237288135593
 20
57.968581635077314
 10
62.11118644067797
 20
57.97630161454911
 10
62.16
 20
58.0
 10
64.56
 20
58.0
 10
64.60881355932203
 20
58.02369838545089
 10
64.65762711864407
 20
58.03141836492268
 10
64.7064406779661
 20
57.937491059987906
 10
64.75525423728814
 20
57.86181425437214
 10
64.80406779661017
 20
58.02286613912655
 10
64.8528813559322
 20
58.290546056099366
 10
64.90169491525424
 20
58.18170150933425
 10
64.95050847457627
 20
57.63258204881454
 10
64.99932203389831
 20
57.42756548766746
 10
65.04813559322034
 20
58.17354876196886
 10
65.09694915254238
 20
59.01141643760391
 10
65.1457627118644
 20
58.4503706878402
 10
65.19457627118643
 20
56.82956620071622
 10
65.24338983050848
 20
56.55277879904698
 10
65.2922033898305
 20
58.652405980756
 10
65.34101694915255
 20
60.411004119783776
 10
65.38983050847457
 20
58.72856031175074
 10
65.43864406779662
 20
55.334426253067676
 10
65.48745762711864
 20
55.34213098043876
 10
65.53627118644067
 20
59.62154006775566
 10
65.58508474576271
 20
62.27576126753014
 10
65.63389830508474
 20
58.74634566788027
 10
65.68271186440678
 20
53.45873296694217
 10
65.73152542372881
 20
54.35237230352761
 10
65.78033898305085
 20
60.87676257092081
 10
65.82915254237288
 20
63.74014635682468
 10
65.87796610169491
 20
58.32451683295887
 10
65.92677966101695
 20
52.14291021422563
 10
65.97559322033898
 20
54.24779397168415
 10
66.02440677966102
 20
61.75220602831646
 10
66.07322033898305
 20
63.857089785774114
 10
66.12203389830509
 20
57.67548316704039
 10
66.17084745762712
 20
52.259853643175305
 10
66.21966101694915
 20
55.12323742907978
 10
66.26847457627119
 20
61.647627696472426
 10
66.31728813559322
 20
62.541267033057814
 10
66.36610169491526
 20
57.253654332119694
 10
66.41491525423729
 20
53.724238732469786
 10
66.46372881355933
 20
56.37845993224477
 10
66.51254237288136
 20
60.657869019561524
 10
66.56135593220338
 20
60.66557374693231
 10
66.61016949152543
 20
57.27143968824924
 10
66.65898305084745
 20
55.588995880216224
 10
66.7077966101695
 20
57.34759401924401
 10
66.75661016949152
 20
59.44722120095314
 10
66.80542372881357
 20
59.170433799283664
 10
66.8542372881356
 20
57.54962931215979
 10
66.90305084745762
 20
56.98858356239609
 10
66.95186440677966
 20
57.82645123803114
 10
67.00067796610169
 20
58.57243451233254
 10
67.04949152542373
 20
58.36741795118545
 10
67.09830508474576
 20
57.818298490665704
 10
67.1471186440678
 20
57.70945394390064
 10
67.19593220338983
 20
57.97713386087348
 10
67.24474576271186
 20
58.13818574562786
 10
67.2935593220339
 20
58.062508940012094
 10
67.34237288135593
 20
57.968581635077314
 10
67.39118644067797
 20
57.97630161454911
 10
67.44
 20
58.0
 10
69.84
 20
58.0
 10
69.87254237288136
 20
58.017740807599814
 10
69.90508474576271
 20
58.053649641059714
 10
69.93762711864407
 20
58.051562510623185
 10
69.97016949152543
 20
57.96241692500667
 10
70.00271186440678
 20
57.81575006433551
 10
70.03525423728813
 20
57.74057103502507
 10
70.0677966101695
 20
57.882126301087204
 10
70.10033898305085
 20
58.24794708493034
 10
70.1328813559322
 20
58.6124350016102
 10
70.16542372881355
 20
58.61502126374448
 10
70.19796610169492
 20
58.051430419320276
 10
70.23050847457627
 20
57.156125498936376
 10
70.26305084745763
 20
56.58732056894917
 10
70.29559322033899
 20
56.995510370461645
 10
70.32813559322034
 20
58.418178964398955
 10
70.36067796610169
 20
60.00933818295012
 10
70.39322033898304
 20
60.4808607988409
 10
70.42576271186441
 20
59.090522194470196
 10
70.45830508474576
 20
56.449095738498094
 10
70.49084745762711
 20
54.36941400131402
 10
70.52338983050848
 20
54.63800124375297
 10
70.55593220338983
 20
57.525007401073914
 10
70.58847457627118
 20
61.26217071580577
 10
70.62101694915255
 20
63.119621730385944
 10
70.6535593220339
 20
61.444480089801885
 10
70.68610169491525
 20
57.10485636785964
 10
70.7186440677966
 20
53.077166657277054
 10
70.75118644067797
 20
52.32266219999849
 10
70.78372881355932
 20
55.52396583172666
 10
70.81627118644067
 20
60.47603416827425
 10
70.84881355932202
 20
63.6773378000018
 10
70.88135593220339
 20
62.92283334272313
 10
70.91389830508474
 20
58.895143632140055
 10
70.94644067796611
 20
54.555519910198356
 10
70.97898305084746
 20
52.880378269614056
 10
71.01152542372881
 20
54.73782928419482
 10
71.04406779661016
 20
58.474992598926335
 10
71.07661016949152
 20
61.36199875624717
 10
71.10915254237288
 20
61.63058599868593
 10
71.14169491525423
 20
59.55090426150174
 10
71.1742372881356
 20
56.909477805529335
 10
71.20677966101695
 20
55.51913920115905
 10
71.2393220338983
 20
55.990661817050075
 10
71.27186440677966
 20
57.58182103560137
 10
71.30440677966102
 20
59.004489629538426
 10
71.33694915254237
 20
59.41267943105083
 10
71.36949152542373
 20
58.84387450106349
 10
71.40203389830508
 20
57.94856958067967
 10
71.43457627118644
 20
57.38497873625549
 10
71.4671186440678
 20
57.387564998389806
 10
71.49966101694915
 20
57.75205291506968
 10
71.5322033898305
 20
58.11787369891285
 10
71.56474576271187
 20
58.25942896497493
 10
71.59728813559322
 20
58.18424993566448
 10
71.62983050847458
 20
58.03758307499332
 10
71.66237288135594
 20
57.94843748937681
 10
71.69491525423729
 20
57.946350358940286
 10
71.72745762711864
 20
57.982259192400186
 10
71.75999999999999
 20
58.0
 10
77.53999999999999
 20
58.0
  0
LWPOLYLINE
  5
57
330
17
100
AcDbEntity
  8
WAVE
100
AcDbPolyline
 90
2
 70
0
 10
81.34
 20
58.0
 10
98.64
 20
58.0
  0
TEXT
  5
58
330
17
100
AcDbEntity
  8
TEXT
100
AcDbText
 10
12.0
 20
40.0
 30
0.0
 40
10.0
  1
Z_0
  7
TNR
 11
12.0
 21
40.0
 31
0.0
100
AcDbText
  0
LINE
  5
59
330
17
100
AcDbEntity
  8
BASE
100
AcDbLine
 10
34.0
 20
40.0
 30
0.0
 11
37.0
 21
40.0
 31
0.0
  0
LINE
  5
5A
330
17
100
AcDbEntity
  8
BASE
100
AcDbLine
 10
39.0
 20
40.0
 30
0.0
 11
78.44
 21
40.0
 31
0.0
  0
LINE
  5
5B
330
17
100
AcDbEntity
  8
BASE
100
AcDbLine
 10
80.44
 20
40.0
 30
0.0
 11
101.64
 21
40.0
 31
0.0
  0
LINE
  5
5C
330
17
100
AcDbEntity
  8
BASE
100
AcDbLine
 10
103.64
 20
40.0
 30
0.0
 11
106.64
 21
40.0
 31
0.0
  0
CIRCLE
  5
5D
330
17
100
AcDbEntity
  8
WAVE
100
AcDbCircle
 10
36.8
 20
40.0
 30
0.0
 40
0.275
  0
CIRCLE
  5
5E
330
17
100
AcDbEntity
  8
WAVE
100
AcDbCircle
 10
38.0
 20
40.0
 30
0.0
 40
0.275
  0
CIRCLE
  5
5F
330
17
100
AcDbEntity
  8
WAVE
100
AcDbCircle
 10
39.2
 20
40.0
 30
0.0
 40
0.275
  0
CIRCLE
  5
60
330
17
100
AcDbEntity
  8
WAVE
100
AcDbCircle
 10
101.44
 20
40.0
 30
0.0
 40
0.275
  0
CIRCLE
  5
61
330
17
100
AcDbEntity
  8
WAVE
100
AcDbCircle
 10
102.64
 20
40.0
 30
0.0
 40
0.275
  0
CIRCLE
  5
62
330
17
100
AcDbEntity
  8
WAVE
100
AcDbCircle
 10
103.84
 20
40.0
 30
0.0
 40
0.275
  0
CIRCLE
  5
63
330
17
100
AcDbEntity
  8
WAVE
100
AcDbCircle
 10
78.24
 20
40.0
 30
0.0
 40
0.275
  0
CIRCLE
  5
64
330
17
100
AcDbEntity
  8
WAVE
100
AcDbCircle
 10
79.44
 20
40.0
 30
0.0
 40
0.275
  0
CIRCLE
  5
65
330
17
100
AcDbEntity
  8
WAVE
100
AcDbCircle
 10
80.64
 20
40.0
 30
0.0
 40
0.275
  0
TEXT
  5
66
330
17
100
AcDbEntity
  8
TEXT
100
AcDbText
 10
12.0
 20
22.0
 30
0.0
 40
10.0
  1
RO_0
  7
TNR
 11
12.0
 21
22.0
 31
0.0
100
AcDbText
  0
LINE
  5
67
330
17
100
AcDbEntity
  8
BASE
100
AcDbLine
 10
34.0
 20
22.0
 30
0.0
 11
37.0
 21
22.0
 31
0.0
  0
LINE
  5
68
330
17
100
AcDbEntity
  8
BASE
100
AcDbLine
 10
39.0
 20
22.0
 30
0.0
 11
78.44
 21
22.0
 31
0.0
  0
LINE
  5
69
330
17
100
AcDbEntity
  8
BASE
100
AcDbLine
 10
80.44
 20
22.0
 30
0.0
 11
101.64
 21
22.0
 31
0.0
  0
LINE
  5
6A
330
17
100
AcDbEntity
  8
BASE
100
AcDbLine
 10
103.64
 20
22.0
 30
0.0
 11
106.64
 21
22.0
 31
0.0
  0
CIRCLE
  5
6B
330
17
100
AcDbEntity
  8
WAVE
100
AcDbCircle
 10
36.8
 20
22.0
 30
0.0
 40
0.275
  0
CIRCLE
  5
6C
330
17
100
AcDbEntity
  8
WAVE
100
AcDbCircle
 10
38.0
 20
22.0
 30
0.0
 40
0.275
  0
CIRCLE
  5
6D
330
17
100
AcDbEntity
  8
WAVE
100
AcDbCircle
 10
39.2
 20
22.0
 30
0.0
 40
0.275
  0
CIRCLE
  5
6E
330
17
100
AcDbEntity
  8
WAVE
100
AcDbCircle
 10
101.44
 20
22.0
 30
0.0
 40
0.275
  0
CIRCLE
  5
6F
330
17
100
AcDbEntity
  8
WAVE
100
AcDbCircle
 10
102.64
 20
22.0
 30
0.0
 40
0.275
  0
CIRCLE
  5
70
330
17
100
AcDbEntity
  8
WAVE
100
AcDbCircle
 10
103.84
 20
22.0
 30
0.0
 40
0.275
  0
CIRCLE
  5
71
330
17
100
AcDbEntity
  8
WAVE
100
AcDbCircle
 10
78.24
 20
22.0
 30
0.0
 40
0.275
  0
CIRCLE
  5
72
330
17
100
AcDbEntity
  8
WAVE
100
AcDbCircle
 10
79.44
 20
22.0
 30
0.0
 40
0.275
  0
CIRCLE
  5
73
330
17
100
AcDbEntity
  8
WAVE
100
AcDbCircle
 10
80.64
 20
22.0
 30
0.0
 40
0.275
  0
LWPOLYLINE
  5
74
330
17
100
AcDbEntity
  8
WAVE
  6
DASHED
100
AcDbPolyline
 90
92
 70
0
 10
42.0
 20
22.0
 10
72.24
 20
22.0
 10
72.2995041322314
 20
25.3
 10
72.35900826446282
 20
25.3
 10
72.41851239669421
 20
25.3
 10
72.47801652892562
 20
25.3
 10
72.53752066115703
 20
25.3
 10
72.59702479338843
 20
25.3
 10
72.65652892561982
 20
25.3
 10
72.71603305785123
 20
25.3
 10
72.77553719008264
 20
25.3
 10
72.83504132231405
 20
25.3
 10
72.89454545454545
 20
25.3
 10
72.95404958677686
 20
25.3
 10
73.01355371900826
 20
25.3
 10
73.07305785123967
 20
25.3
 10
73.13256198347108
 20
25.3
 10
73.19206611570247
 20
25.3
 10
73.25157024793388
 20
25.3
 10
73.31107438016528
 20
25.3
 10
73.37057851239669
 20
25.3
 10
73.4300826446281
 20
25.3
 10
73.4895867768595
 20
25.3
 10
73.5490909090909
 20
25.3
 10
73.60859504132232
 20
25.3
 10
73.66809917355371
 20
25.3
 10
73.72760330578512
 20
25.3
 10
73.78710743801653
 20
25.3
 10
73.84661157024794
 20
25.3
 10
73.90611570247934
 20
25.3
 10
73.96561983471074
 20
25.3
 10
74.02512396694215
 20
25.3
 10
74.08462809917356
 20
25.3
 10
74.14413223140495
 20
25.3
 10
74.20363636363636
 20
25.3
 10
74.26314049586776
 20
25.3
 10
74.32264462809917
 20
25.3
 10
74.38214876033058
 20
25.3
 10
74.44165289256199
 20
25.3
 10
74.50115702479339
 20
25.3
 10
74.56066115702478
 20
25.3
 10
74.62016528925619
 20
25.3
 10
74.6796694214876
 20
25.3
 10
74.73917355371901
 20
25.3
 10
74.79867768595042
 20
25.3
 10
74.85818181818182
 20
25.3
 10
74.91768595041322
 20
25.3
 10
74.97719008264463
 20
25.3
 10
75.03669421487604
 20
25.3
 10
75.09619834710745
 20
25.3
 10
75.15570247933884
 20
25.3
 10
75.21520661157024
 20
25.3
 10
75.27471074380165
 20
25.3
 10
75.33421487603306
 20
25.3
 10
75.39371900826447
 20
25.3
 10
75.45322314049587
 20
25.3
 10
75.51272727272726
 20
25.3
 10
75.57223140495867
 20
25.3
 10
75.63173553719008
 20
25.3
 10
75.69123966942149
 20
25.3
 10
75.7507438016529
 20
25.3
 10
75.81024793388428
 20
25.3
 10
75.8697520661157
 20
25.3
 10
75.9292561983471
 20
25.3
 10
75.98876033057851
 20
25.3
 10
76.04826446280993
 20
25.3
 10
76.10776859504132
 20
25.3
 10
76.16727272727273
 20
25.3
 10
76.22677685950413
 20
25.3
 10
76.28628099173554
 20
25.3
 10
76.34578512396695
 20
25.3
 10
76.40528925619834
 20
25.3
 10
76.46479338842975
 20
25.3
 10
76.52429752066115
 20
25.3
 10
76.58380165289256
 20
25.3
 10
76.64330578512397
 20
25.3
 10
76.70280991735537
 20
25.3
 10
76.76231404958678
 20
25.3
 10
76.82181818181817
 20
25.3
 10
76.88132231404958
 20
25.3
 10
76.940826446281
 20
25.3
 10
77.0003305785124
 20
25.3
 10
77.0598347107438
 20
25.3
 10
77.1193388429752
 20
25.3
 10
77.1788429752066
 20
25.3
 10
77.23834710743802
 20
25.3
 10
77.29785123966943
 20
25.3
 10
77.35735537190082
 20
25.3
 10
77.41685950413223
 20
25.3
 10
77.47636363636363
 20
25.3
 10
77.53586776859504
 20
25.3
 10
77.53999999999999
 20
25.3
  0
LWPOLYLINE
  5
75
330
17
100
AcDbEntity
  8
WAVE
  6
DASHED
100
AcDbPolyline
 90
92
 70
0
 10
81.34
 20
25.3
 10
81.34413223140498
 20
25.3
 10
81.40363636363638
 20
25.3
 10
81.46314049586778
 20
25.3
 10
81.52264462809916
 20
25.3
 10
81.58214876033057
 20
25.3
 10
81.64165289256195
 20
25.3
 10
81.70115702479342
 20
25.3
 10
81.7606611570248
 20
25.3
 10
81.82016528925621
 20
25.3
 10
81.87966942148759
 20
25.3
 10
81.939173553719
 20
25.3
 10
81.99867768595038
 20
25.3
 10
82.05818181818184
 20
25.3
 10
82.11768595041323
 20
25.3
 10
82.17719008264463
 20
25.3
 10
82.23669421487602
 20
25.3
 10
82.29619834710742
 20
25.3
 10
82.35570247933887
 20
25.3
 10
82.41520661157026
 20
25.3
 10
82.47471074380167
 20
25.3
 10
82.53421487603305
 20
25.3
 10
82.59371900826446
 20
25.3
 10
82.65322314049584
 20
25.3
 10
82.7127272727273
 20
25.3
 10
82.77223140495869
 20
25.3
 10
82.83173553719008
 20
25.3
 10
82.89123966942148
 20
25.3
 10
82.95074380165288
 20
25.3
 10
83.01024793388427
 20
25.3
 10
83.06975206611573
 20
25.3
 10
83.12925619834712
 20
25.3
 10
83.18876033057852
 20
25.3
 10
83.24826446280991
 20
25.3
 10
83.3077685950413
 20
25.3
 10
83.3672727272727
 20
25.3
 10
83.42677685950414
 20
25.3
 10
83.48628099173555
 20
25.3
 10
83.54578512396694
 20
25.3
 10
83.60528925619835
 20
25.3
 10
83.66479338842973
 20
25.3
 10
83.72429752066114
 20
25.3
 10
83.78380165289258
 20
25.3
 10
83.84330578512397
 20
25.3
 10
83.90280991735537
 20
25.3
 10
83.96231404958677
 20
25.3
 10
84.02181818181816
 20
25.3
 10
84.0813223140496
 20
25.3
 10
84.14082644628101
 20
25.3
 10
84.20033057851239
 20
25.3
 10
84.2598347107438
 20
25.3
 10
84.31933884297518
 20
25.3
 10
84.3788429752066
 20
25.3
 10
84.43834710743803
 20
25.3
 10
84.49785123966943
 20
25.3
 10
84.55735537190083
 20
25.3
 10
84.61685950413222
 20
25.3
 10
84.67636363636362
 20
25.3
 10
84.73586776859501
 20
25.3
 10
84.79537190082647
 20
25.3
 10
84.85487603305786
 20
25.3
 10
84.91438016528926
 20
25.3
 10
84.97388429752066
 20
25.3
 10
85.03338842975205
 20
25.3
 10
85.09289256198343
 20
25.3
 10
85.1523966942149
 20
25.3
 10
85.21190082644628
 20
25.3
 10
85.27140495867769
 20
25.3
 10
85.33090909090907
 20
25.3
 10
85.39041322314048
 20
25.3
 10
85.44991735537192
 20
25.3
 10
85.50942148760332
 20
25.3
 10
85.56892561983472
 20
25.3
 10
85.62842975206611
 20
25.3
 10
85.68793388429751
 20
25.3
 10
85.7474380165289
 20
25.3
 10
85.80694214876036
 20
25.3
 10
85.86644628099174
 20
25.3
 10
85.92595041322315
 20
25.3
 10
85.98545454545453
 20
25.3
 10
86.04495867768594
 20
25.3
 10
86.10446280991732
 20
25.3
 10
86.16396694214879
 20
25.3
 10
86.22347107438017
 20
25.3
 10
86.28297520661157
 20
25.3
 10
86.34247933884296
 20
25.3
 10
86.40198347107436
 20
25.3
 10
86.46148760330576
 20
25.3
 10
86.52099173553721
 20
25.3
 10
86.5804958677686
 20
25.3
 10
86.64
 20
22.0
 10
98.64
 20
22.0
  0
LWPOLYLINE
  5
76
330
17
100
AcDbEntity
  8
WAVE
100
AcDbPolyline
 90
92
 70
0
 10
42.0
 20
22.0
 10
72.24
 20
22.0
 10
72.2995041322314
 20
25.24245791950638
 10
72.35900826446282
 20
21.42857464528491
 10
72.41851239669421
 20
18.74270625178246
 10
72.47801652892562
 20
22.48685673746357
 10
72.53752066115703
 20
25.269933934909147
 10
72.59702479338843
 20
21.598040055012696
 10
72.65652892561982
 20
18.719630040781876
 10
72.71603305785123
 20
22.3167922036138
 10
72.77553719008264
 20
25.28859478653999
 10
72.83504132231405
 20
21.76858907768697
 10
72.89454545454545
 20
18.70539712722971
 10
72.95404958677686
 20
22.145873653991956
 10
73.01355371900826
 20
25.29839016804208
 10
73.07305785123967
 20
21.939761943294894
 10
73.13256198347108
 20
18.700045880544497
 10
73.19206611570247
 20
21.97456185478869
 10
73.25157024793388
 20
25.29929367279879
 10
73.31107438016528
 20
22.111097200053
 10
73.37057851239669
 20
18.703590726741208
 10
73.4300826446281
 20
21.80331863232751
 10
73.4895867768595
 20
25.29130286512098
 10
73.5490909090909
 20
22.282132958401487
 10
73.60859504132232
 20
18.716022109541182
 10
73.66809917355371
 20
21.632605628060027
 10
73.72760330578512
 20
25.274439286813415
 10
73.78710743801653
 20
22.452408136175688
 10
73.84661157024794
 20
18.737306516134343
 10
73.90611570247934
 20
21.462883054065955
 10
73.96561983471074
 20
25.2487483991017
 10
74.02512396694215
 20
22.621463701598334
 10
74.08462809917356
 20
18.767386567523438
 10
74.14413223140495
 20
21.294608452396734
 10
74.20363636363636
 20
25.21429946007721
 10
74.26314049586776
 20
22.78884391075553
 10
74.32264462809917
 20
18.806181173208035
 10
74.38214876033058
 20
21.128235461628282
 10
74.44165289256199
 20
25.171185337988767
 10
74.50115702479339
 20
22.954097536194347
 10
74.56066115702478
 20
18.85358574979001
 10
74.62016528925619
 20
20.96421259392972
 10
74.6796694214876
 20
25.119522260887422
 10
74.73917355371901
 20
23.1167790833585
 10
74.79867768595042
 20
18.909472502911782
 10
74.85818181818182
 20
20.802982025952087
 10
74.91768595041322
 20
25.059449503294534
 10
74.97719008264463
 20
23.27644999155748
 10
75.03669421487604
 20
18.973690771768275
 10
75.09619834710745
 20
20.644978406803578
 10
75.15570247933884
 20
24.991129010744643
 10
75.21520661157024
 20
23.43267981625291
 10
75.27471074380165
 20
19.046067435259168
 10
75.33421487603306
 20
20.49062768630501
 10
75.39371900826447
 20
24.914744963206395
 10
75.45322314049587
 20
23.585047389457472
 10
75.51272727272726
 20
19.12640737869642
 10
75.57223140495867
 20
20.34034596671136
 10
75.63173553719008
 20
24.830503278567043
 10
75.69123966942149
 20
23.73314195513336
 10
75.7507438016529
 20
19.21449401979629
 10
75.81024793388428
 20
20.194538380967877
 10
75.8697520661157
 20
24.738631057515377
 10
75.9292561983471
 20
23.876564276512994
 10
75.98876033057851
 20
19.310089892547673
 10
76.04826446280993
 20
20.053598000548266
 10
76.10776859504132
 20
24.639375971315538
 10
76.16727272727273
 20
24.014927712375915
 10
76.22677685950413
 20
19.41293728737963
 10
76.28628099173554
 20
19.917904775799588
 10
76.34578512396695
 20
24.533005594133154
 10
76.40528925619834
 20
24.147859259360438
 10
76.46479338842975
 20
19.52275894589753
 10
76.52429752066115
 20
19.787824511666397
 10
76.58380165289256
 20
24.41980668169794
 10
76.64330578512397
 20
24.27500055751819
 10
76.70280991735537
 20
19.639258808327394
 10
76.76231404958678
 20
19.663707881542308
 10
76.82181818181817
 20
24.3000843982655
 10
76.88132231404958
 20
24.396008856387624
 10
76.940826446281
 20
19.762122811635994
 10
77.0003305785124
 20
19.5458894819181
 10
77.0598347107438
 20
24.174161493944315
 10
77.1193388429752
 20
24.51055793898872
 10
77.1788429752066
 20
19.89101973619384
 10
77.23834710743802
 20
19.434686930369935
 10
77.29785123966943
 20
24.042377434622363
 10
77.35735537190082
 20
24.618339001247755
 10
77.41685950413223
 20
20.025602098679308
 10
77.47636363636363
 20
19.330400009315962
 10
77.53586776859504
 20
23.905087486824193
 10
77.53999999999999
 20
23.961613458883193
  0
LWPOLYLINE
  5
77
330
17
100
AcDbEntity
  8
WAVE
100
AcDbPolyline
 90
92
 70
0
 10
81.34
 20
21.11910693261551
 10
81.34413223140498
 20
21.29460845239931
 10
81.40363636363638
 20
25.21429946007696
 10
81.46314049586778
 20
22.78884391075406
 10
81.52264462809916
 20
18.806181173207843
 10
81.58214876033057
 20
21.12823546162866
 10
81.64165289256195
 20
25.17118533798877
 10
81.70115702479342
 20
22.95409753619254
 10
81.7606611570248
 20
18.853585749789556
 10
81.82016528925621
 20
20.964212593927595
 10
81.87966942148759
 20
25.11952226088657
 10
81.939173553719
 20
23.116779083361315
 10
81.99867768595038
 20
18.909472502912173
 10
82.05818181818184
 20
20.802982025954197
 10
82.11768595041323
 20
25.05944950329524
 10
82.17719008264463
 20
23.276449991556778
 10
82.23669421487602
 20
18.97369077176797
 10
82.29619834710742
 20
20.64497840680051
 10
82.35570247933887
 20
24.991129010745603
 10
82.41520661157026
 20
23.432679816253913
 10
82.47471074380167
 20
19.04606743525732
 10
82.53421487603305
 20
20.49062768630569
 10
82.59371900826446
 20
24.914744963206225
 10
82.65322314049584
 20
23.58504738945812
 10
82.7127272727273
 20
19.126407378695493
 10
82.77223140495869
 20
20.340345966712345
 10
82.83173553719008
 20
24.830503278567434
 10
82.89123966942148
 20
23.733141955135583
 10
82.95074380165288
 20
19.214494019798096
 10
83.01024793388427
 20
20.194538380967263
 10
83.06975206611573
 20
24.73863105751769
 10
83.12925619834712
 20
23.876564276512365
 10
83.18876033057852
 20
19.310089892547666
 10
83.24826446280991
 20
20.053598000548277
 10
83.3077685950413
 20
24.63937597131532
 10
83.3672727272727
 20
24.01492771237917
 10
83.42677685950414
 20
19.412937287378693
 10
83.48628099173555
 20
19.9179047758028
 10
83.54578512396694
 20
24.533005594135087
 10
83.60528925619835
 20
24.147859259360715
 10
83.66479338842973
 20
19.522758945898264
 10
83.72429752066114
 20
19.787824511665292
 10
83.78380165289258
 20
24.419806681698713
 10
83.84330578512397
 20
24.27500055751791
 10
83.90280991735537
 20
19.639258808327384
 10
83.96231404958677
 20
19.663707881539402
 10
84.02181818181816
 20
24.300084398266588
 10
84.0813223140496
 20
24.39600885638478
 10
84.14082644628101
 20
19.762122811633503
 10
84.20033057851239
 20
19.545889481918106
 10
84.2598347107438
 20
24.174161493944045
 10
84.31933884297518
 20
24.510557938989685
 10
84.3788429752066
 20
19.891019736194696
 10
84.43834710743803
 20
19.434686930370418
 10
84.49785123966943
 20
24.042377434625024
 10
84.55735537190083
 20
24.61833900124592
 10
84.61685950413222
 20
20.025602098679897
 10
84.67636363636362
 20
19.33040000931531
 10
84.73586776859501
 20
23.90508748682267
 10
84.79537190082647
 20
24.719061484474683
 10
84.85487603305786
 20
20.165507088838105
 10
84.91438016528926
 20
19.23330985785791
 10
84.97388429752066
 20
23.762661759978126
 10
85.03338842975205
 20
24.812453858663215
 10
85.09289256198343
 20
20.310357547553313
 10
85.1523966942149
 20
19.143678213880857
 10
85.21190082644628
 20
23.61548420865811
 10
85.27140495867769
 20
24.898264354485516
 10
85.33090909090907
 20
20.459762983592967
 10
85.39041322314048
 20
19.061746708443774
 10
85.44991735537192
 20
23.46395159753062
 10
85.50942148760332
 20
24.976261642011647
 10
85.56892561983472
 20
20.613320626315815
 10
85.62842975206611
 20
18.98773621440862
 10
85.68793388429751
 20
23.308472431711298
 10
85.7474380165289
 20
25.046235454350786
 10
85.80694214876036
 20
20.77061651147387
 10
85.86644628099174
 20
18.921846250975747
 10
85.92595041322315
 20
23.149465855556336
 10
85.98545454545453
 20
25.107997154468723
 10
86.04495867768594
 20
20.931226597162134
 10
86.10446280991732
 20
18.864254445841055
 10
86.16396694214879
 20
22.987360522680547
 10
86.22347107438017
 20
25.16138024374603
 10
86.28297520661157
 20
21.094717906990684
 10
86.34247933884296
 20
18.81511605632708
 10
86.40198347107436
 20
22.822593440390026
 10
86.46148760330576
 20
25.206240810812282
 10
86.52099173553721
 20
21.260649697284457
 10
86.5804958677686
 20
18.774563550846754
 10
86.64
 20
22.0
 10
98.64
 20
22.0
  0
LINE
  5
78
330
17
100
AcDbEntity
  8
BASE
  6
DASHED
100
AcDbLine
 10
42.0
 20
4.0
 30
0.0
 11
42.0
 21
102.0
 31
0.0
  0
LINE
  5
79
330
17
100
AcDbEntity
  8
BASE
100
AcDbLine
 10
34.0
 20
8.0
 30
0.0
 11
37.0
 21
8.0
 31
0.0
  0
LINE
  5
7A
330
17
100
AcDbEntity
  8
BASE
100
AcDbLine
 10
39.0
 20
8.0
 30
0.0
 11
78.44
 21
8.0
 31
0.0
  0
LINE
  5
7B
330
17
100
AcDbEntity
  8
BASE
100
AcDbLine
 10
80.44
 20
8.0
 30
0.0
 11
101.64
 21
8.0
 31
0.0
  0
LINE
  5
7C
330
17
100
AcDbEntity
  8
BASE
100
AcDbLine
 10
103.64
 20
8.0
 30
0.0
 11
106.64
 21
8.0
 31
0.0
  0
CIRCLE
  5
7D
330
17
100
AcDbEntity
  8
WAVE
100
AcDbCircle
 10
36.8
 20
8.0
 30
0.0
 40
0.275
  0
CIRCLE
  5
7E
330
17
100
AcDbEntity
  8
WAVE
100
AcDbCircle
 10
38.0
 20
8.0
 30
0.0
 40
0.275
  0
CIRCLE
  5
7F
330
17
100
AcDbEntity
  8
WAVE
100
AcDbCircle
 10
39.2
 20
8.0
 30
0.0
 40
0.275
  0
CIRCLE
  5
80
330
17
100
AcDbEntity
  8
WAVE
100
AcDbCircle
 10
101.44
 20
8.0
 30
0.0
 40
0.275
  0
CIRCLE
  5
81
330
17
100
AcDbEntity
  8
WAVE
100
AcDbCircle
 10
102.64
 20
8.0
 30
0.0
 40
0.275
  0
CIRCLE
  5
82
330
17
100
AcDbEntity
  8
WAVE
100
AcDbCircle
 10
103.84
 20
8.0
 30
0.0
 40
0.275
  0
CIRCLE
  5
83
330
17
100
AcDbEntity
  8
WAVE
100
AcDbCircle
 10
78.24
 20
8.0
 30
0.0
 40
0.275
  0
CIRCLE
  5
84
330
17
100
AcDbEntity
  8
WAVE
100
AcDbCircle
 10
79.44
 20
8.0
 30
0.0
 40
0.275
  0
CIRCLE
  5
85
330
17
100
AcDbEntity
  8
WAVE
100
AcDbCircle
 10
80.64
 20
8.0
 30
0.0
 40
0.275
  0
TEXT
  5
86
330
17
100
AcDbEntity
  8
TEXT
100
AcDbText
 10
12.0
 20
8.0
 30
0.0
 40
10.0
  1
TIME (ns)
  7
TNR
 11
12.0
 21
8.0
 31
0.0
100
AcDbText
  0
LINE
  5
87
330
17
100
AcDbEntity
  8
BASE
100
AcDbLine
 10
42.0
 20
2.0
 30
0.0
 11
42.0
 21
14.0
 31
0.0
  0
TEXT
  5
88
330
17
100
AcDbEntity
  8
TEXT
100
AcDbText
 10
42.0
 20
-0.8000000000000007
 30
0.0
 40
5.6
  1
0
  7
TNR
 72
1
 11
42.0
 21
-0.8000000000000007
 31
0.0
100
AcDbText
 73
3
  0
LINE
  5
89
330
17
100
AcDbEntity
  8
BASE
100
AcDbLine
 10
66.0
 20
2.0
 30
0.0
 11
66.0
 21
14.0
 31
0.0
  0
TEXT
  5
8A
330
17
100
AcDbEntity
  8
TEXT
100
AcDbText
 10
66.0
 20
-0.8000000000000007
 30
0.0
 40
5.6
  1
200
  7
TNR
 72
1
 11
66.0
 21
-0.8000000000000007
 31
0.0
100
AcDbText
 73
3
  0
LINE
  5
8B
330
17
100
AcDbEntity
  8
BASE
100
AcDbLine
 10
46.8
 20
4.4
 30
0.0
 11
46.8
 21
11.6
 31
0.0
  0
LINE
  5
8C
330
17
100
AcDbEntity
  8
BASE
100
AcDbLine
 10
51.6
 20
4.4
 30
0.0
 11
51.6
 21
11.6
 31
0.0
  0
LINE
  5
8D
330
17
100
AcDbEntity
  8
BASE
100
AcDbLine
 10
56.4
 20
4.4
 30
0.0
 11
56.4
 21
11.6
 31
0.0
  0
LINE
  5
8E
330
17
100
AcDbEntity
  8
BASE
100
AcDbLine
 10
61.2
 20
4.4
 30
0.0
 11
61.2
 21
11.6
 31
0.0
  0
LINE
  5
8F
330
17
100
AcDbEntity
  8
BASE
100
AcDbLine
 10
70.8
 20
4.4
 30
0.0
 11
70.8
 21
11.6
 31
0.0
  0
LINE
  5
90
330
17
100
AcDbEntity
  8
BASE
100
AcDbLine
 10
75.6
 20
4.4
 30
0.0
 11
75.6
 21
11.6
 31
0.0
  0
LINE
  5
91
330
17
100
AcDbEntity
  8
BASE
100
AcDbLine
 10
85.19999999999999
 20
4.4
 30
0.0
 11
85.19999999999999
 21
11.6
 31
0.0
  0
LINE
  5
92
330
17
100
AcDbEntity
  8
BASE
100
AcDbLine
 10
90.0
 20
4.4
 30
0.0
 11
90.0
 21
11.6
 31
0.0
  0
LINE
  5
93
330
17
100
AcDbEntity
  8
BASE
100
AcDbLine
 10
94.8
 20
4.4
 30
0.0
 11
94.8
 21
11.6
 31
0.0
  0
ENDSEC
  0
SECTION
  2
OBJECTS
  0
DICTIONARY
  5
A
330
0
100
AcDbDictionary
281
1
  3
ACAD_COLOR
350
B
  3
ACAD_GROUP
350
C
  3
ACAD_LAYOUT
350
D
  3
ACAD_MATERIAL
350
E
  3
ACAD_MLEADERSTYLE
350
F
  3
ACAD_MLINESTYLE
350
10
  3
ACAD_PLOTSETTINGS
350
11
  3
ACAD_PLOTSTYLENAME
350
12
  3
ACAD_SCALELIST
350
14
  3
ACAD_TABLESTYLE
350
15
  3
ACAD_VISUALSTYLE
350
16
  3
EZDXF_META
350
2D
  0
DICTIONARY
  5
B
330
A
100
AcDbDictionary
281
1
  0
DICTIONARY
  5
C
330
A
100
AcDbDictionary
281
1
  0
DICTIONARY
  5
D
330
A
100
AcDbDictionary
281
1
  3
Model
350
1A
  3
Layout1
350
1E
  0
DICTIONARY
  5
E
330
A
100
AcDbDictionary
281
1
  3
ByBlock
350
1F
  3
ByLayer
350
20
  3
Global
350
21
  0
DICTIONARY
  5
F
330
A
100
AcDbDictionary
281
1
  3
Standard
350
2C
  0
DICTIONARY
  5
10
330
A
100
AcDbDictionary
281
1
  3
Standard
350
22
  0
DICTIONARY
  5
11
330
A
100
AcDbDictionary
281
1
  0
ACDBDICTIONARYWDFLT
  5
12
330
A
100
AcDbDictionary
281
1
  3
Normal
350
13
100
AcDbDictionaryWithDefault
340
13
  0
ACDBPLACEHOLDER
  5
13
330
12
  0
DICTIONARY
  5
14
330
A
100
AcDbDictionary
281
1
  0
DICTIONARY
  5
15
330
A
100
AcDbDictionary
281
1
  0
DICTIONARY
  5
16
330
A
100
AcDbDictionary
281
1
  0
LAYOUT
  5
1A
330
D
100
AcDbPlotSettings
  1

  4
A3
  6

 40
7.5
 41
20.0
 42
7.5
 43
20.0
 44
420.0
 45
297.0
 46
0.0
 47
0.0
 48
0.0
 49
0.0
140
0.0
141
0.0
142
1.0
143
1.0
 70
1024
 72
1
 73
0
 74
5
  7

 75
16
 76
0
 77
2
 78
300
147
1.0
148
0.0
149
0.0
100
AcDbLayout
  1
Model
 70
1
 71
0
 10
0.0
 20
0.0
 11
420.0
 21
297.0
 12
0.0
 22
0.0
 32
0.0
 14
1e+20
 24
1e+20
 34
1e+20
 15
-1e+20
 25
-1e+20
 35
-1e+20
146
0.0
 13
0.0
 23
0.0
 33
0.0
 16
1.0
 26
0.0
 36
0.0
 17
0.0
 27
1.0
 37
0.0
 76
1
330
17
  0
LAYOUT
  5
1E
330
D
100
AcDbPlotSettings
  1

  4
A3
  6

 40
7.5
 41
20.0
 42
7.5
 43
20.0
 44
420.0
 45
297.0
 46
0.0
 47
0.0
 48
0.0
 49
0.0
140
0.0
141
0.0
142
1.0
143
1.0
 70
0
 72
1
 73
0
 74
5
  7

 75
16
 76
0
 77
2
 78
300
147
1.0
148
0.0
149
0.0
100
AcDbLayout
  1
Layout1
 70
1
 71
1
 10
0.0
 20
0.0
 11
420.0
 21
297.0
 12
0.0
 22
0.0
 32
0.0
 14
1e+20
 24
1e+20
 34
1e+20
 15
-1e+20
 25
-1e+20
 35
-1e+20
146
0.0
 13
0.0
 23
0.0
 33
0.0
 16
1.0
 26
0.0
 36
0.0
 17
0.0
 27
1.0
 37
0.0
 76
1
330
1B
  0
MATERIAL
  5
1F
102
{ACAD_REACTORS
330
E
102
}
330
E
100
AcDbMaterial
  1
ByBlock
  2

 70
0
 40
1.0
 71
1
 41
1.0
 91
-1023410177
 42
1.0
 72
1
  3

 73
1
 74
1
 75
1
 44
0.5
 73
0
 45
1.0
 46
1.0
 77
1
  4

 78
1
 79
1
170
1
 48
1.0
171
1
  6

172
1
173
1
174
1
140
1.0
141
1.0
175
1
  7

176
1
177
1
178
1
143
1.0
179
1
  8

270
1
271
1
272
1
145
1.0
146
1.0
273
1
  9

274
1
275
1
276
1
 42
1.0
 72
1
  3

 73
1
 74
1
 75
1
 94
63
  0
MATERIAL
  5
20
102
{ACAD_REACTORS
330
E
102
}
330
E
100
AcDbMaterial
  1
ByLayer
  2

 70
0
 40
1.0
 71
1
 41
1.0
 91
-1023410177
 42
1.0
 72
1
  3

 73
1
 74
1
 75
1
 44
0.5
 73
0
 45
1.0
 46
1.0
 77
1
  4

 78
1
 79
1
170
1
 48
1.0
171
1
  6

172
1
173
1
174
1
140
1.0
141
1.0
175
1
  7

176
1
177
1
178
1
143
1.0
179
1
  8

270
1
271
1
272
1
145
1.0
146
1.0
273
1
  9

274
1
275
1
276
1
 42
1.0
 72
1
  3

 73
1
 74
1
 75
1
 94
63
  0
MATERIAL
  5
21
102
{ACAD_REACTORS
330
E
102
}
330
E
100
AcDbMaterial
  1
Global
  2

 70
0
 40
1.0
 71
1
 41
1.0
 91
-1023410177
 42
1.0
 72
1
  3

 73
1
 74
1
 75
1
 44
0.5
 73
0
 45
1.0
 46
1.0
 77
1
  4

 78
1
 79
1
170
1
 48
1.0
171
1
  6

172
1
173
1
174
1
140
1.0
141
1.0
175
1
  7

176
1
177
1
178
1
143
1.0
179
1
  8

270
1
271
1
272
1
145
1.0
146
1.0
273
1
  9

274
1
275
1
276
1
 42
1.0
 72
1
  3

 73
1
 74
1
 75
1
 94
63
  0
MLINESTYLE
  5
22
102
{ACAD_REACTORS
330
10
102
}
330
10
100
AcDbMlineStyle
  2
Standard
 70
0
  3

 62
256
 51
90.0
 52
90.0
 71
2
 49
0.5
 62
256
  6
BYLAYER
 49
-0.5
 62
256
  6
BYLAYER
  0
MLEADERSTYLE
  5
2C
102
{ACAD_REACTORS
330
F
102
}
330
F
100
AcDbMLeaderStyle
179
2
170
2
171
1
172
0
 90
2
 40
0.0
 41
0.0
173
1
 91
-1056964608
 92
-2
290
1
 42
2.0
291
1
 43
8.0
  3
Standard
 44
4.0
300

342
29
174
1
175
1
176
0
178
1
 93
-1056964608
 45
4.0
292
0
297
0
 46
4.0
 94
-1056964608
 47
1.0
 49
1.0
140
1.0
294
1
141
0.0
177
0
142
1.0
295
0
296
0
143
3.75
271
0
272
9
273
9
  0
DICTIONARY
  5
2D
330
A
100
AcDbDictionary
280
1
281
1
  3
CREATED_BY_EZDXF
350
2E
  3
WRITTEN_BY_EZDXF
350
96
  0
DICTIONARYVAR
  5
2E
330
2D
100
DictionaryVariables
280
0
  1
1.4.3 @ 2026-02-15T07:26:33.862411+00:00
  0
DICTIONARYVAR
  5
96
330
2D
100
DictionaryVariables
280
0
  1
1.4.3 @ 2026-02-15T07:26:33.875334+00:00
  0
ENDSEC
  0
EOF
